<?xml version="1.0" encoding="UTF-8" standalone="no"?>
<!-- Created with Inkscape (http://www.inkscape.org/) -->

<svg
   width="216.72247"
   height="223.00243"
   viewBox="0 0 57.341155 59.002725"
   version="1.1"
   id="svg5"
   xml:space="preserve"
   inkscape:export-filename="cover3.svg"
   inkscape:export-xdpi="96"
   inkscape:export-ydpi="96"
   inkscape:version="1.2.1 (9c6d41e410, 2022-07-14)"
   sodipodi:docname="cover3.svg"
   xmlns:inkscape="http://www.inkscape.org/namespaces/inkscape"
   xmlns:sodipodi="http://sodipodi.sourceforge.net/DTD/sodipodi-0.dtd"
   xmlns="http://www.w3.org/2000/svg"
   xmlns:svg="http://www.w3.org/2000/svg"><style
     id="style28816">#text {   }
</style><sodipodi:namedview
     id="namedview7"
     pagecolor="#ffffff"
     bordercolor="#000000"
     borderopacity="0.25"
     inkscape:showpageshadow="2"
     inkscape:pageopacity="0.0"
     inkscape:pagecheckerboard="0"
     inkscape:deskcolor="#d1d1d1"
     inkscape:document-units="mm"
     showgrid="false"
     inkscape:zoom="0.70772055"
     inkscape:cx="1577.6001"
     inkscape:cy="488.18704"
     inkscape:window-width="1920"
     inkscape:window-height="991"
     inkscape:window-x="-9"
     inkscape:window-y="-9"
     inkscape:window-maximized="1"
     inkscape:current-layer="g36109" /><defs
     id="defs2" /><g
     inkscape:groupmode="layer"
     id="layer4"
     inkscape:label="capa03"
     transform="translate(-489.86331,-47.138466)"><g
       id="hojalimon"><ellipse
         style="fill:#fab592;fill-opacity:1;fill-rule:evenodd;stroke:none;stroke-width:0.656943;stroke-dasharray:none;stroke-opacity:1;stop-color:#000000"
         id="ellipse34870"
         cx="281.69147"
         cy="140.20912"
         rx="1.8807802"
         ry="1.7258925" /><path
         style="fill:#1d2551;fill-opacity:1;fill-rule:evenodd;stroke-width:2.17662;stroke-dasharray:4.35325, 6.52985;stop-color:#000000"
         d="m 278.21567,156.06668 7.51009,0.50068 0.28961,9.37688 -0.16444,9.52352 h -1.25168 l -1.62275,-9.94717 c 0,0 -2.38263,-7.26345 -2.06971,-7.45122 0.31292,-0.18778 -2.69112,-2.00269 -2.69112,-2.00269 z"
         id="path34872"
         sodipodi:nodetypes="ccccccsc" /><path
         style="fill:#1d2551;fill-opacity:1;fill-rule:evenodd;stroke-width:2.24279;stroke-dasharray:4.48559, 6.72836;stop-color:#000000"
         d="m 279.74728,163.75402 -0.40143,3.80832 -0.91986,7.32254 -2.15826,-0.094 -0.0198,-11.29126 0.8162,-8.40655 4.22795,1.43431 z"
         id="path34874"
         sodipodi:nodetypes="cccccccc" /><path
         style="fill:#c07b19;fill-opacity:1;fill-rule:evenodd;stroke-width:2.17662;stroke-dasharray:4.35325, 6.52985;stop-color:#000000"
         d="m 280.8442,142.48593 1.62719,-0.18778 c 0.84977,0.52524 1.97873,0.86433 2.3782,1.68977 0.74169,0.6313 0.99913,1.90826 1.25167,3.19178 l 0.0198,3.10418 0.30843,6.96112 -9.54131,-0.67768 0.6456,-7.486 0.006,-5.74961 z"
         id="path34876"
         sodipodi:nodetypes="cccccccccc" /><path
         style="fill:#c07b19;fill-opacity:1;fill-rule:evenodd;stroke-width:2.17662;stroke-dasharray:4.35325, 6.52985;stop-color:#000000"
         d="m 273.11153,131.68099 -1.43942,0.8136 1.94962,8.49865 3.80628,5.15142 1.10058,-0.68659 0.31292,-2.31561 -2.21191,-2.51226 z"
         id="path34878"
         sodipodi:nodetypes="cccccccc" /><path
         style="fill:#c07b19;fill-opacity:1;fill-rule:evenodd;stroke-width:2.17662;stroke-dasharray:4.35325, 6.52985;stop-color:#000000"
         d="m 284.32973,143.6264 1.58753,2.39453 4.31838,-5.76038 2.11713,-7.5894 -1.88013,0.37365 -1.61913,5.14891 z"
         id="path34880"
         sodipodi:nodetypes="ccccccc" /><g
         id="g36109"
         transform="matrix(1.9787493,0,0,1.9787493,-30.18333,-147.85554)"><path
           style="opacity:1;fill:#edf15c;fill-opacity:1;fill-rule:evenodd;stroke:none;stroke-width:0.331999;stroke-dasharray:none;stroke-opacity:1;stop-color:#000000"
           d="m 150.25734,139.23393 15.18149,1.0121 c -1.36495,1.73823 -3.73886,2.89991 -7.46423,3.28933 -4.24454,-0.90177 -6.04602,-2.58088 -7.71726,-4.30143 z"
           id="path28764"
           sodipodi:nodetypes="cccc" /><path
           style="opacity:1;fill:#ebec37;fill-opacity:1;fill-rule:evenodd;stroke:none;stroke-width:0.331999;stroke-dasharray:none;stroke-opacity:1;stop-color:#000000"
           d="m 150.30974,139.22088 15.18401,0.97353 c -1.12697,-1.90118 -3.32939,-3.36211 -6.97231,-4.23335 -4.32583,0.34134 -6.33063,1.77157 -8.2117,3.25982 z"
           id="path28766"
           sodipodi:nodetypes="cccc" /><g
           id="g804"
           inkscape:export-filename="..\..\Documents\bones practiques docents\logoSanantonio.svg"
           inkscape:export-xdpi="96"
           inkscape:export-ydpi="96"
           transform="matrix(0.50536973,0,0,0.50536973,341.38561,65.56308)"><path
             id="path989"
             d="m -141.79606,65.261108 v 0.582031 12.71289 h -13.67382 V 65.261108 Z m -3.54297,1.166015 h -8.96484 v 9.53125 l 3.74219,-7.402344 z m 2.09691,1.222573 -6.47776,1.820396 -3.35045,7.641822 9.4548,-0.466755 z"
             style="color:#000000;font-style:normal;font-variant:normal;font-weight:normal;font-stretch:normal;font-size:medium;line-height:normal;font-family:sans-serif;font-variant-ligatures:normal;font-variant-position:normal;font-variant-caps:normal;font-variant-numeric:normal;font-variant-alternates:normal;font-feature-settings:normal;text-indent:0;text-align:start;text-decoration:none;text-decoration-line:none;text-decoration-style:solid;text-decoration-color:#000000;letter-spacing:normal;word-spacing:normal;text-transform:none;writing-mode:lr-tb;direction:ltr;text-orientation:mixed;dominant-baseline:auto;baseline-shift:baseline;text-anchor:start;white-space:normal;shape-padding:0;clip-rule:nonzero;display:inline;overflow:visible;visibility:visible;isolation:auto;mix-blend-mode:normal;color-interpolation:sRGB;color-interpolation-filters:linearRGB;solid-color:#000000;solid-opacity:1;fill:#f47f78;fill-opacity:1;fill-rule:nonzero;stroke:none;stroke-width:0.2;stroke-linecap:butt;stroke-linejoin:miter;stroke-miterlimit:4;stroke-dasharray:none;stroke-dashoffset:0;stroke-opacity:1;color-rendering:auto;image-rendering:auto;shape-rendering:auto;text-rendering:auto;enable-background:accumulate" /><path
             style="color:#000000;font-style:normal;font-variant:normal;font-weight:normal;font-stretch:normal;font-size:medium;line-height:normal;font-family:sans-serif;font-variant-ligatures:normal;font-variant-position:normal;font-variant-caps:normal;font-variant-numeric:normal;font-variant-alternates:normal;font-feature-settings:normal;text-indent:0;text-align:start;text-decoration:none;text-decoration-line:none;text-decoration-style:solid;text-decoration-color:#000000;letter-spacing:normal;word-spacing:normal;text-transform:none;writing-mode:lr-tb;direction:ltr;text-orientation:mixed;dominant-baseline:auto;baseline-shift:baseline;text-anchor:start;white-space:normal;shape-padding:0;clip-rule:nonzero;display:inline;overflow:visible;visibility:visible;isolation:auto;mix-blend-mode:normal;color-interpolation:sRGB;color-interpolation-filters:linearRGB;solid-color:#000000;solid-opacity:1;fill:#f47f78;fill-opacity:1;fill-rule:nonzero;stroke:none;stroke-width:0.2;stroke-linecap:butt;stroke-linejoin:miter;stroke-miterlimit:4;stroke-dasharray:none;stroke-dashoffset:0;stroke-opacity:1;color-rendering:auto;image-rendering:auto;shape-rendering:auto;text-rendering:auto;enable-background:accumulate"
             d="M -141.79606,93.791209 V 93.209178 80.496287 h -13.67382 v 13.294922 z m -3.54297,-1.166015 h -8.96484 v -9.531251 l 3.74219,7.402345 z m 2.09691,-1.222573 -6.47776,-1.820396 -3.35045,-7.641823 9.4548,0.466755 z"
             id="use1030" /><path
             style="color:#000000;font-style:normal;font-variant:normal;font-weight:normal;font-stretch:normal;font-size:medium;line-height:normal;font-family:sans-serif;font-variant-ligatures:normal;font-variant-position:normal;font-variant-caps:normal;font-variant-numeric:normal;font-variant-alternates:normal;font-feature-settings:normal;text-indent:0;text-align:start;text-decoration:none;text-decoration-line:none;text-decoration-style:solid;text-decoration-color:#000000;letter-spacing:normal;word-spacing:normal;text-transform:none;writing-mode:lr-tb;direction:ltr;text-orientation:mixed;dominant-baseline:auto;baseline-shift:baseline;text-anchor:start;white-space:normal;shape-padding:0;clip-rule:nonzero;display:inline;overflow:visible;visibility:visible;isolation:auto;mix-blend-mode:normal;color-interpolation:sRGB;color-interpolation-filters:linearRGB;solid-color:#000000;solid-opacity:1;fill:#f47f78;fill-opacity:1;fill-rule:nonzero;stroke:none;stroke-width:0.2;stroke-linecap:butt;stroke-linejoin:miter;stroke-miterlimit:4;stroke-dasharray:none;stroke-dashoffset:0;stroke-opacity:1;color-rendering:auto;image-rendering:auto;shape-rendering:auto;text-rendering:auto;enable-background:accumulate"
             d="m -141.79606,95.73151 v 0.582032 12.712888 h -13.67382 V 95.73151 Z m -3.54297,1.166015 h -8.96484 v 9.531255 l 3.74219,-7.402349 z m 2.09691,1.222574 -6.47776,1.820395 -3.35045,7.641826 9.4548,-0.46676 z"
             id="use1032" /><path
             style="color:#000000;font-style:normal;font-variant:normal;font-weight:normal;font-stretch:normal;font-size:medium;line-height:normal;font-family:sans-serif;font-variant-ligatures:normal;font-variant-position:normal;font-variant-caps:normal;font-variant-numeric:normal;font-variant-alternates:normal;font-feature-settings:normal;text-indent:0;text-align:start;text-decoration:none;text-decoration-line:none;text-decoration-style:solid;text-decoration-color:#000000;letter-spacing:normal;word-spacing:normal;text-transform:none;writing-mode:lr-tb;direction:ltr;text-orientation:mixed;dominant-baseline:auto;baseline-shift:baseline;text-anchor:start;white-space:normal;shape-padding:0;clip-rule:nonzero;display:inline;overflow:visible;visibility:visible;isolation:auto;mix-blend-mode:normal;color-interpolation:sRGB;color-interpolation-filters:linearRGB;solid-color:#000000;solid-opacity:1;fill:#f47f78;fill-opacity:1;fill-rule:nonzero;stroke:none;stroke-width:0.2;stroke-linecap:butt;stroke-linejoin:miter;stroke-miterlimit:4;stroke-dasharray:none;stroke-dashoffset:0;stroke-opacity:1;color-rendering:auto;image-rendering:auto;shape-rendering:auto;text-rendering:auto;enable-background:accumulate"
             d="m -141.79606,124.26163 v -0.58203 -12.71289 h -13.67382 v 13.29492 z m -3.54297,-1.16601 h -8.96484 v -9.53125 l 3.74219,7.40234 z m 2.09691,-1.22258 -6.47776,-1.82039 -3.35045,-7.64183 9.4548,0.46676 z"
             id="use1034" /><path
             style="color:#000000;font-style:normal;font-variant:normal;font-weight:normal;font-stretch:normal;font-size:medium;line-height:normal;font-family:sans-serif;font-variant-ligatures:normal;font-variant-position:normal;font-variant-caps:normal;font-variant-numeric:normal;font-variant-alternates:normal;font-feature-settings:normal;text-indent:0;text-align:start;text-decoration:none;text-decoration-line:none;text-decoration-style:solid;text-decoration-color:#000000;letter-spacing:normal;word-spacing:normal;text-transform:none;writing-mode:lr-tb;direction:ltr;text-orientation:mixed;dominant-baseline:auto;baseline-shift:baseline;text-anchor:start;white-space:normal;shape-padding:0;clip-rule:nonzero;display:inline;overflow:visible;visibility:visible;isolation:auto;mix-blend-mode:normal;color-interpolation:sRGB;color-interpolation-filters:linearRGB;solid-color:#000000;solid-opacity:1;fill:#f47f78;fill-opacity:1;fill-rule:nonzero;stroke:none;stroke-width:0.2;stroke-linecap:butt;stroke-linejoin:miter;stroke-miterlimit:4;stroke-dasharray:none;stroke-dashoffset:0;stroke-opacity:1;color-rendering:auto;image-rendering:auto;shape-rendering:auto;text-rendering:auto;enable-background:accumulate"
             d="m -140.91411,65.261108 v 0.582031 12.71289 h 13.67382 V 65.261108 Z m 3.54297,1.166015 h 8.96484 v 9.53125 l -3.74219,-7.402344 z m -2.09691,1.222573 6.47776,1.820396 3.35045,7.641822 -9.4548,-0.466755 z"
             id="use1036" /><path
             style="color:#000000;font-style:normal;font-variant:normal;font-weight:normal;font-stretch:normal;font-size:medium;line-height:normal;font-family:sans-serif;font-variant-ligatures:normal;font-variant-position:normal;font-variant-caps:normal;font-variant-numeric:normal;font-variant-alternates:normal;font-feature-settings:normal;text-indent:0;text-align:start;text-decoration:none;text-decoration-line:none;text-decoration-style:solid;text-decoration-color:#000000;letter-spacing:normal;word-spacing:normal;text-transform:none;writing-mode:lr-tb;direction:ltr;text-orientation:mixed;dominant-baseline:auto;baseline-shift:baseline;text-anchor:start;white-space:normal;shape-padding:0;clip-rule:nonzero;display:inline;overflow:visible;visibility:visible;isolation:auto;mix-blend-mode:normal;color-interpolation:sRGB;color-interpolation-filters:linearRGB;solid-color:#000000;solid-opacity:1;fill:#f47f78;fill-opacity:1;fill-rule:nonzero;stroke:none;stroke-width:0.2;stroke-linecap:butt;stroke-linejoin:miter;stroke-miterlimit:4;stroke-dasharray:none;stroke-dashoffset:0;stroke-opacity:1;color-rendering:auto;image-rendering:auto;shape-rendering:auto;text-rendering:auto;enable-background:accumulate"
             d="M -140.91411,93.791209 V 93.209178 80.496287 h 13.67382 v 13.294922 z m 3.54297,-1.166015 h 8.96484 v -9.531251 l -3.74219,7.402345 z m -2.09691,-1.222573 6.47776,-1.820396 3.35045,-7.641823 -9.4548,0.466755 z"
             id="use1038" /><path
             style="color:#000000;font-style:normal;font-variant:normal;font-weight:normal;font-stretch:normal;font-size:medium;line-height:normal;font-family:sans-serif;font-variant-ligatures:normal;font-variant-position:normal;font-variant-caps:normal;font-variant-numeric:normal;font-variant-alternates:normal;font-feature-settings:normal;text-indent:0;text-align:start;text-decoration:none;text-decoration-line:none;text-decoration-style:solid;text-decoration-color:#000000;letter-spacing:normal;word-spacing:normal;text-transform:none;writing-mode:lr-tb;direction:ltr;text-orientation:mixed;dominant-baseline:auto;baseline-shift:baseline;text-anchor:start;white-space:normal;shape-padding:0;clip-rule:nonzero;display:inline;overflow:visible;visibility:visible;isolation:auto;mix-blend-mode:normal;color-interpolation:sRGB;color-interpolation-filters:linearRGB;solid-color:#000000;solid-opacity:1;fill:#f47f78;fill-opacity:1;fill-rule:nonzero;stroke:none;stroke-width:0.2;stroke-linecap:butt;stroke-linejoin:miter;stroke-miterlimit:4;stroke-dasharray:none;stroke-dashoffset:0;stroke-opacity:1;color-rendering:auto;image-rendering:auto;shape-rendering:auto;text-rendering:auto;enable-background:accumulate"
             d="m -140.91411,95.73151 v 0.582032 12.712888 h 13.67382 V 95.73151 Z m 3.54297,1.166015 h 8.96484 v 9.531255 l -3.74219,-7.402349 z m -2.09691,1.222574 6.47776,1.820395 3.35045,7.641826 -9.4548,-0.46676 z"
             id="use1040" /><path
             style="color:#000000;font-style:normal;font-variant:normal;font-weight:normal;font-stretch:normal;font-size:medium;line-height:normal;font-family:sans-serif;font-variant-ligatures:normal;font-variant-position:normal;font-variant-caps:normal;font-variant-numeric:normal;font-variant-alternates:normal;font-feature-settings:normal;text-indent:0;text-align:start;text-decoration:none;text-decoration-line:none;text-decoration-style:solid;text-decoration-color:#000000;letter-spacing:normal;word-spacing:normal;text-transform:none;writing-mode:lr-tb;direction:ltr;text-orientation:mixed;dominant-baseline:auto;baseline-shift:baseline;text-anchor:start;white-space:normal;shape-padding:0;clip-rule:nonzero;display:inline;overflow:visible;visibility:visible;isolation:auto;mix-blend-mode:normal;color-interpolation:sRGB;color-interpolation-filters:linearRGB;solid-color:#000000;solid-opacity:1;fill:#f47f78;fill-opacity:1;fill-rule:nonzero;stroke:none;stroke-width:0.2;stroke-linecap:butt;stroke-linejoin:miter;stroke-miterlimit:4;stroke-dasharray:none;stroke-dashoffset:0;stroke-opacity:1;color-rendering:auto;image-rendering:auto;shape-rendering:auto;text-rendering:auto;enable-background:accumulate"
             d="m -140.91411,124.26163 v -0.58203 -12.71289 h 13.67382 v 13.29492 z m 3.54297,-1.16601 h 8.96484 v -9.53125 l -3.74219,7.40234 z m -2.09691,-1.22258 6.47776,-1.82039 3.35045,-7.64183 -9.4548,0.46676 z"
             id="use1042" /><path
             style="color:#000000;font-style:normal;font-variant:normal;font-weight:normal;font-stretch:normal;font-size:medium;line-height:normal;font-family:sans-serif;font-variant-ligatures:normal;font-variant-position:normal;font-variant-caps:normal;font-variant-numeric:normal;font-variant-alternates:normal;font-feature-settings:normal;text-indent:0;text-align:start;text-decoration:none;text-decoration-line:none;text-decoration-style:solid;text-decoration-color:#000000;letter-spacing:normal;word-spacing:normal;text-transform:none;writing-mode:lr-tb;direction:ltr;text-orientation:mixed;dominant-baseline:auto;baseline-shift:baseline;text-anchor:start;white-space:normal;shape-padding:0;clip-rule:nonzero;display:inline;overflow:visible;visibility:visible;isolation:auto;mix-blend-mode:normal;color-interpolation:sRGB;color-interpolation-filters:linearRGB;solid-color:#000000;solid-opacity:1;fill:#f47f78;fill-opacity:1;fill-rule:nonzero;stroke:none;stroke-width:0.2;stroke-linecap:butt;stroke-linejoin:miter;stroke-miterlimit:4;stroke-dasharray:none;stroke-dashoffset:0;stroke-opacity:1;color-rendering:auto;image-rendering:auto;shape-rendering:auto;text-rendering:auto;enable-background:accumulate"
             d="m -112.68454,65.261108 v 0.582031 12.71289 h -13.67382 V 65.261108 Z m -3.54297,1.166015 h -8.96484 v 9.53125 l 3.74219,-7.402344 z m 2.09691,1.222573 -6.47776,1.820396 -3.35045,7.641822 9.4548,-0.466755 z"
             id="use1044" /><path
             style="color:#000000;font-style:normal;font-variant:normal;font-weight:normal;font-stretch:normal;font-size:medium;line-height:normal;font-family:sans-serif;font-variant-ligatures:normal;font-variant-position:normal;font-variant-caps:normal;font-variant-numeric:normal;font-variant-alternates:normal;font-feature-settings:normal;text-indent:0;text-align:start;text-decoration:none;text-decoration-line:none;text-decoration-style:solid;text-decoration-color:#000000;letter-spacing:normal;word-spacing:normal;text-transform:none;writing-mode:lr-tb;direction:ltr;text-orientation:mixed;dominant-baseline:auto;baseline-shift:baseline;text-anchor:start;white-space:normal;shape-padding:0;clip-rule:nonzero;display:inline;overflow:visible;visibility:visible;isolation:auto;mix-blend-mode:normal;color-interpolation:sRGB;color-interpolation-filters:linearRGB;solid-color:#000000;solid-opacity:1;fill:#f47f78;fill-opacity:1;fill-rule:nonzero;stroke:none;stroke-width:0.2;stroke-linecap:butt;stroke-linejoin:miter;stroke-miterlimit:4;stroke-dasharray:none;stroke-dashoffset:0;stroke-opacity:1;color-rendering:auto;image-rendering:auto;shape-rendering:auto;text-rendering:auto;enable-background:accumulate"
             d="M -112.68454,93.791209 V 93.209178 80.496287 h -13.67382 v 13.294922 z m -3.54297,-1.166015 h -8.96484 v -9.531251 l 3.74219,7.402345 z m 2.09691,-1.222573 -6.47776,-1.820396 -3.35045,-7.641823 9.4548,0.466755 z"
             id="use1046" /><path
             style="color:#000000;font-style:normal;font-variant:normal;font-weight:normal;font-stretch:normal;font-size:medium;line-height:normal;font-family:sans-serif;font-variant-ligatures:normal;font-variant-position:normal;font-variant-caps:normal;font-variant-numeric:normal;font-variant-alternates:normal;font-feature-settings:normal;text-indent:0;text-align:start;text-decoration:none;text-decoration-line:none;text-decoration-style:solid;text-decoration-color:#000000;letter-spacing:normal;word-spacing:normal;text-transform:none;writing-mode:lr-tb;direction:ltr;text-orientation:mixed;dominant-baseline:auto;baseline-shift:baseline;text-anchor:start;white-space:normal;shape-padding:0;clip-rule:nonzero;display:inline;overflow:visible;visibility:visible;isolation:auto;mix-blend-mode:normal;color-interpolation:sRGB;color-interpolation-filters:linearRGB;solid-color:#000000;solid-opacity:1;fill:#f47f78;fill-opacity:1;fill-rule:nonzero;stroke:none;stroke-width:0.2;stroke-linecap:butt;stroke-linejoin:miter;stroke-miterlimit:4;stroke-dasharray:none;stroke-dashoffset:0;stroke-opacity:1;color-rendering:auto;image-rendering:auto;shape-rendering:auto;text-rendering:auto;enable-background:accumulate"
             d="m -112.68454,95.731517 v 0.582031 12.712892 h -13.67382 V 95.731517 Z m -3.54297,1.166015 h -8.96484 v 9.531248 l 3.74219,-7.402342 z m 2.09691,1.222573 -6.47776,1.820396 -3.35045,7.641819 9.4548,-0.46675 z"
             id="use1048" /><path
             style="color:#000000;font-style:normal;font-variant:normal;font-weight:normal;font-stretch:normal;font-size:medium;line-height:normal;font-family:sans-serif;font-variant-ligatures:normal;font-variant-position:normal;font-variant-caps:normal;font-variant-numeric:normal;font-variant-alternates:normal;font-feature-settings:normal;text-indent:0;text-align:start;text-decoration:none;text-decoration-line:none;text-decoration-style:solid;text-decoration-color:#000000;letter-spacing:normal;word-spacing:normal;text-transform:none;writing-mode:lr-tb;direction:ltr;text-orientation:mixed;dominant-baseline:auto;baseline-shift:baseline;text-anchor:start;white-space:normal;shape-padding:0;clip-rule:nonzero;display:inline;overflow:visible;visibility:visible;isolation:auto;mix-blend-mode:normal;color-interpolation:sRGB;color-interpolation-filters:linearRGB;solid-color:#000000;solid-opacity:1;fill:#f47f78;fill-opacity:1;fill-rule:nonzero;stroke:none;stroke-width:0.2;stroke-linecap:butt;stroke-linejoin:miter;stroke-miterlimit:4;stroke-dasharray:none;stroke-dashoffset:0;stroke-opacity:1;color-rendering:auto;image-rendering:auto;shape-rendering:auto;text-rendering:auto;enable-background:accumulate"
             d="m -112.68454,124.26163 v -0.58203 -12.71289 h -13.67382 v 13.29492 z m -3.54297,-1.16601 h -8.96484 v -9.53125 l 3.74219,7.40234 z m 2.09691,-1.22258 -6.47776,-1.82039 -3.35045,-7.64183 9.4548,0.46676 z"
             id="use1050" /><path
             style="color:#000000;font-style:normal;font-variant:normal;font-weight:normal;font-stretch:normal;font-size:medium;line-height:normal;font-family:sans-serif;font-variant-ligatures:normal;font-variant-position:normal;font-variant-caps:normal;font-variant-numeric:normal;font-variant-alternates:normal;font-feature-settings:normal;text-indent:0;text-align:start;text-decoration:none;text-decoration-line:none;text-decoration-style:solid;text-decoration-color:#000000;letter-spacing:normal;word-spacing:normal;text-transform:none;writing-mode:lr-tb;direction:ltr;text-orientation:mixed;dominant-baseline:auto;baseline-shift:baseline;text-anchor:start;white-space:normal;shape-padding:0;clip-rule:nonzero;display:inline;overflow:visible;visibility:visible;isolation:auto;mix-blend-mode:normal;color-interpolation:sRGB;color-interpolation-filters:linearRGB;solid-color:#000000;solid-opacity:1;fill:#f47f78;fill-opacity:1;fill-rule:nonzero;stroke:none;stroke-width:0.2;stroke-linecap:butt;stroke-linejoin:miter;stroke-miterlimit:4;stroke-dasharray:none;stroke-dashoffset:0;stroke-opacity:1;color-rendering:auto;image-rendering:auto;shape-rendering:auto;text-rendering:auto;enable-background:accumulate"
             d="m -111.80259,65.261108 v 0.582031 12.71289 h 13.673817 V 65.261108 Z m 3.54297,1.166015 h 8.964837 v 9.53125 l -3.742187,-7.402344 z m -2.09691,1.222573 6.47776,1.820396 3.35045,7.641822 -9.4548,-0.466755 z"
             id="use1052" /><path
             style="color:#000000;font-style:normal;font-variant:normal;font-weight:normal;font-stretch:normal;font-size:medium;line-height:normal;font-family:sans-serif;font-variant-ligatures:normal;font-variant-position:normal;font-variant-caps:normal;font-variant-numeric:normal;font-variant-alternates:normal;font-feature-settings:normal;text-indent:0;text-align:start;text-decoration:none;text-decoration-line:none;text-decoration-style:solid;text-decoration-color:#000000;letter-spacing:normal;word-spacing:normal;text-transform:none;writing-mode:lr-tb;direction:ltr;text-orientation:mixed;dominant-baseline:auto;baseline-shift:baseline;text-anchor:start;white-space:normal;shape-padding:0;clip-rule:nonzero;display:inline;overflow:visible;visibility:visible;isolation:auto;mix-blend-mode:normal;color-interpolation:sRGB;color-interpolation-filters:linearRGB;solid-color:#000000;solid-opacity:1;fill:#f47f78;fill-opacity:1;fill-rule:nonzero;stroke:none;stroke-width:0.2;stroke-linecap:butt;stroke-linejoin:miter;stroke-miterlimit:4;stroke-dasharray:none;stroke-dashoffset:0;stroke-opacity:1;color-rendering:auto;image-rendering:auto;shape-rendering:auto;text-rendering:auto;enable-background:accumulate"
             d="M -111.80259,93.791209 V 93.209178 80.496287 h 13.673817 v 13.294922 z m 3.54297,-1.166015 h 8.964837 v -9.531251 l -3.742187,7.402345 z m -2.09691,-1.222573 6.47776,-1.820396 3.35045,-7.641823 -9.4548,0.466755 z"
             id="use1054" /><path
             style="color:#000000;font-style:normal;font-variant:normal;font-weight:normal;font-stretch:normal;font-size:medium;line-height:normal;font-family:sans-serif;font-variant-ligatures:normal;font-variant-position:normal;font-variant-caps:normal;font-variant-numeric:normal;font-variant-alternates:normal;font-feature-settings:normal;text-indent:0;text-align:start;text-decoration:none;text-decoration-line:none;text-decoration-style:solid;text-decoration-color:#000000;letter-spacing:normal;word-spacing:normal;text-transform:none;writing-mode:lr-tb;direction:ltr;text-orientation:mixed;dominant-baseline:auto;baseline-shift:baseline;text-anchor:start;white-space:normal;shape-padding:0;clip-rule:nonzero;display:inline;overflow:visible;visibility:visible;isolation:auto;mix-blend-mode:normal;color-interpolation:sRGB;color-interpolation-filters:linearRGB;solid-color:#000000;solid-opacity:1;fill:#f47f78;fill-opacity:1;fill-rule:nonzero;stroke:none;stroke-width:0.2;stroke-linecap:butt;stroke-linejoin:miter;stroke-miterlimit:4;stroke-dasharray:none;stroke-dashoffset:0;stroke-opacity:1;color-rendering:auto;image-rendering:auto;shape-rendering:auto;text-rendering:auto;enable-background:accumulate"
             d="m -111.80259,95.73151 v 0.582032 12.712888 h 13.673817 V 95.73151 Z m 3.54297,1.166015 h 8.964837 v 9.531255 l -3.742187,-7.402349 z m -2.09691,1.222574 6.47776,1.820395 3.35045,7.641826 -9.4548,-0.46676 z"
             id="use1056" /><path
             style="color:#000000;font-style:normal;font-variant:normal;font-weight:normal;font-stretch:normal;font-size:medium;line-height:normal;font-family:sans-serif;font-variant-ligatures:normal;font-variant-position:normal;font-variant-caps:normal;font-variant-numeric:normal;font-variant-alternates:normal;font-feature-settings:normal;text-indent:0;text-align:start;text-decoration:none;text-decoration-line:none;text-decoration-style:solid;text-decoration-color:#000000;letter-spacing:normal;word-spacing:normal;text-transform:none;writing-mode:lr-tb;direction:ltr;text-orientation:mixed;dominant-baseline:auto;baseline-shift:baseline;text-anchor:start;white-space:normal;shape-padding:0;clip-rule:nonzero;display:inline;overflow:visible;visibility:visible;isolation:auto;mix-blend-mode:normal;color-interpolation:sRGB;color-interpolation-filters:linearRGB;solid-color:#000000;solid-opacity:1;fill:#f47f78;fill-opacity:1;fill-rule:nonzero;stroke:none;stroke-width:0.2;stroke-linecap:butt;stroke-linejoin:miter;stroke-miterlimit:4;stroke-dasharray:none;stroke-dashoffset:0;stroke-opacity:1;color-rendering:auto;image-rendering:auto;shape-rendering:auto;text-rendering:auto;enable-background:accumulate"
             d="m -111.80259,124.26163 v -0.58203 -12.71289 h 13.673817 v 13.29492 z m 3.54297,-1.16601 h 8.964837 v -9.53125 l -3.742187,7.40234 z m -2.09691,-1.22258 6.47776,-1.82039 3.35045,-7.64183 -9.4548,0.46676 z"
             id="use1058" /><path
             style="fill:#ffffff;fill-opacity:1;fill-rule:nonzero;stroke:#ffffff;stroke-width:0;stroke-linecap:butt;stroke-linejoin:miter;stroke-miterlimit:4;stroke-dasharray:none;stroke-dashoffset:0;stroke-opacity:1"
             d="m -126.81879,69.488346 a 25.281476,25.281476 0 0 0 -25.28129,25.281293 25.281476,25.281476 0 0 0 25.28129,25.281791 25.281476,25.281476 0 0 0 25.2813,-25.281791 25.281476,25.281476 0 0 0 -25.2813,-25.281293 z m 0,6.900702 a 18.380826,18.380826 0 0 1 18.38061,18.380591 18.380826,18.380826 0 0 1 -18.38061,18.381081 18.380826,18.380826 0 0 1 -18.38108,-18.381081 18.380826,18.380826 0 0 1 18.38108,-18.380591 z"
             id="path1419" /><g
             id="text1423"
             style="font-style:normal;font-variant:normal;font-weight:normal;font-stretch:normal;font-size:4.23333px;line-height:1.25;font-family:Carlito;-inkscape-font-specification:'Carlito, Normal';font-variant-ligatures:normal;font-variant-caps:normal;font-variant-numeric:normal;font-feature-settings:normal;text-align:start;letter-spacing:0px;word-spacing:0px;writing-mode:lr-tb;text-anchor:start;fill:#000000;fill-opacity:1;stroke:none;stroke-width:0.264583"
             transform="rotate(-172.33659,-174.50648,83.774177)"
             aria-label="SAN ANTONIO DE PADUA I"><path
               id="path1713"
               style="font-style:normal;font-variant:normal;font-weight:normal;font-stretch:normal;font-size:4.23333px;font-family:'Comic Sans MS';-inkscape-font-specification:'Comic Sans MS, Normal';font-variant-ligatures:normal;font-variant-caps:normal;font-variant-numeric:normal;font-feature-settings:normal;text-align:start;letter-spacing:0.182563px;writing-mode:lr-tb;text-anchor:start;stroke-width:0.264583"
               d="m -200.93034,79.957376 q 0.0867,0.0039 0.13627,0.06735 0.0514,0.06568 0.0454,0.154356 -0.007,0.101049 -0.12763,0.169442 -0.16393,0.09444 -0.22526,0.173113 -0.1275,0.16738 -0.15038,0.50146 -0.0219,0.319645 0.0975,0.603385 0.15334,0.362726 0.46886,0.384337 0.25984,0.0178 0.43058,-0.26679 0.14701,-0.240631 0.18247,-0.607001 0.0347,-0.324984 0.18029,-0.544992 0.18709,-0.281395 0.49849,-0.260066 0.36708,0.02514 0.64169,0.462475 0.25939,0.417643 0.23029,0.842462 -0.0137,0.200036 -0.099,0.446966 -0.11156,0.328007 -0.24973,0.318543 -0.18148,-0.01243 -0.16876,-0.19803 0.006,-0.08249 0.0631,-0.285745 0.0595,-0.203115 0.0652,-0.316679 0.0179,-0.32199 -0.12136,-0.557366 -0.14297,-0.241845 -0.36982,-0.257383 -0.17116,-0.01172 -0.26218,0.288683 -0.0346,0.111587 -0.0796,0.435864 -0.0674,0.469849 -0.34753,0.717937 -0.25589,0.226958 -0.60028,0.203369 -0.49081,-0.03362 -0.75257,-0.507364 -0.22668,-0.411259 -0.19108,-0.930939 0.0258,-0.377388 0.19167,-0.680959 0.20363,-0.371426 0.51339,-0.356425 z" /><path
               id="path1715"
               style="font-style:normal;font-variant:normal;font-weight:normal;font-stretch:normal;font-size:4.23333px;font-family:'Comic Sans MS';-inkscape-font-specification:'Comic Sans MS, Normal';font-variant-ligatures:normal;font-variant-caps:normal;font-variant-numeric:normal;font-feature-settings:normal;text-align:start;letter-spacing:0.182563px;writing-mode:lr-tb;text-anchor:start;stroke-width:0.264583"
               d="m -202.26834,85.26978 q 0.0414,-0.18561 0.54811,-0.216625 0.19327,-0.01196 0.66476,0.01058 0.0176,-0.212084 0.0193,-0.561168 l 0.009,-0.5614 q -0.2418,-0.159812 -0.69578,-0.517304 -0.0986,-0.08975 -0.0738,-0.200717 0.018,-0.0807 0.0909,-0.132213 0.0725,-0.0495 0.1592,-0.03015 0.0968,0.0216 0.66846,0.468855 0.0601,-0.0226 0.12869,-0.0073 0.16342,0.03644 0.16574,0.244505 0.38045,0.326273 0.86304,0.802389 0.65801,0.648659 0.63191,0.765674 -0.0355,0.159383 -0.27051,0.168402 l -0.70623,-0.02406 -1.4692,-0.01207 -0.34441,0.04391 q -0.17646,0.02207 -0.23093,0.0099 -0.0868,-0.01935 -0.13132,-0.09494 -0.0446,-0.07559 -0.0266,-0.15629 z m 2.46482,-0.197947 -0.8014,-0.784408 q 0.008,0.258065 -0.0138,0.774166 z" /><path
               id="path1717"
               style="font-style:normal;font-variant:normal;font-weight:normal;font-stretch:normal;font-size:4.23333px;font-family:'Comic Sans MS';-inkscape-font-specification:'Comic Sans MS, Normal';font-variant-ligatures:normal;font-variant-caps:normal;font-variant-numeric:normal;font-feature-settings:normal;text-align:start;letter-spacing:0.182563px;writing-mode:lr-tb;text-anchor:start;stroke-width:0.264583"
               d="m -203.1272,89.098768 q -0.0921,-0.03698 -0.29457,-0.153958 -0.18141,-0.108502 -0.1113,-0.283051 0.0424,-0.105496 0.23903,-0.195803 1.05204,-0.48406 2.85061,-0.935579 l -0.43156,-0.184477 -0.43502,-0.181411 q -0.15921,-0.06395 -0.47993,-0.186081 -0.32148,-0.120218 -0.48261,-0.184934 -0.51597,-0.207244 -0.43585,-0.406728 0.0424,-0.105497 0.13417,-0.139912 0.0818,-0.03174 0.16428,0.0014 0.0806,0.03236 0.23898,0.109353 0.15764,0.07891 0.2382,0.111271 0.11893,0.04777 0.35177,0.150201 0.23477,0.103205 0.35369,0.150971 0.1266,0.05085 0.38402,0.14756 0.25934,0.09748 0.38593,0.148331 0.12085,0.04854 0.36794,0.121052 0.24901,0.07328 0.36985,0.121822 0.0882,0.03544 0.13107,0.139522 0.0421,0.106001 0.004,0.201907 -0.0408,0.10166 -0.32342,0.161904 -0.9073,0.190243 -1.53439,0.381653 -0.7446,0.228859 -1.47476,0.565983 0.0802,0.03888 0.2436,0.09784 l 0.24399,0.09132 q 0.84206,0.338216 1.36696,0.473311 0.053,0.01236 0.2222,0.02911 0.14584,0.01403 0.21873,0.0433 0.2225,0.08937 0.14084,0.292689 -0.13405,0.333753 -1.37891,-0.166253 -0.21291,-0.08552 -0.63451,-0.261535 -0.41967,-0.175248 -0.63258,-0.260765 z" /><path
               id="path1719"
               style="font-style:normal;font-variant:normal;font-weight:normal;font-stretch:normal;font-size:4.23333px;font-family:'Comic Sans MS';-inkscape-font-specification:'Comic Sans MS, Normal';font-variant-ligatures:normal;font-variant-caps:normal;font-variant-numeric:normal;font-feature-settings:normal;text-align:start;letter-spacing:0.182563px;writing-mode:lr-tb;text-anchor:start;stroke-width:0.264583"
               d="m -205.95575,92.615656 q 0.10928,-0.155638 0.58929,0.0096 0.18314,0.06292 0.6101,0.264189 0.0975,-0.189184 0.23255,-0.511078 l 0.2229,-0.515324 q -0.16222,-0.240185 -0.44481,-0.744203 -0.0567,-0.120651 0.009,-0.213695 0.0475,-0.06767 0.13458,-0.08736 0.0859,-0.018 0.15862,0.03308 0.0812,0.05701 0.43812,0.688988 0.0642,0.0021 0.1217,0.04251 0.13703,0.09621 0.0595,0.289317 0.22663,0.447041 0.49025,1.071602 0.35966,0.851106 0.29076,0.949225 -0.0938,0.133646 -0.31436,0.05205 l -0.64325,-0.292516 -1.35272,-0.573441 -0.335,-0.09124 q -0.17147,-0.04715 -0.21715,-0.07922 -0.0727,-0.05107 -0.085,-0.137963 -0.0122,-0.08689 0.0353,-0.154558 z m 2.35292,0.760457 -0.44018,-1.031398 q -0.0913,0.241519 -0.30903,0.709944 z" /><path
               id="path1721"
               style="font-style:normal;font-variant:normal;font-weight:normal;font-stretch:normal;font-size:4.23333px;font-family:'Comic Sans MS';-inkscape-font-specification:'Comic Sans MS, Normal';font-variant-ligatures:normal;font-variant-caps:normal;font-variant-numeric:normal;font-feature-settings:normal;text-align:start;letter-spacing:0.182563px;writing-mode:lr-tb;text-anchor:start;stroke-width:0.264583"
               d="m -208.20978,95.827815 q -0.071,-0.06927 -0.2137,-0.254568 -0.12639,-0.169428 0.005,-0.304105 0.0794,-0.0814 0.2956,-0.08998 1.15711,-0.04677 2.99207,0.220932 l -0.32874,-0.334972 -0.33311,-0.333456 q -0.12284,-0.119773 -0.37284,-0.35488 -0.25145,-0.233626 -0.37577,-0.354842 -0.39811,-0.388181 -0.24804,-0.542099 0.0794,-0.0814 0.17735,-0.07825 0.0877,0.0018 0.15137,0.06387 0.0622,0.06061 0.17929,0.192147 0.1157,0.133019 0.17786,0.193627 0.0918,0.08947 0.26802,0.272885 0.17775,0.184858 0.26951,0.274327 0.0977,0.09524 0.29884,0.282727 0.20265,0.188929 0.30033,0.28417 0.0932,0.09091 0.29407,0.252091 0.20231,0.162622 0.29555,0.253534 0.0681,0.06638 0.068,0.178935 -0.001,0.114035 -0.0736,0.188034 -0.0765,0.07844 -0.36071,0.02648 -0.91135,-0.169744 -1.56408,-0.231662 -0.77563,-0.07206 -1.57917,-0.03852 0.0593,0.06649 0.18796,0.183268 l 0.1908,0.177384 q 0.64971,0.633499 1.08357,0.958373 0.0443,0.0316 0.19436,0.111561 0.1295,0.06853 0.18574,0.123364 0.17168,0.167394 0.0187,0.324272 -0.25109,0.257516 -1.21159,-0.679025 -0.16428,-0.160178 -0.48702,-0.483532 -0.32127,-0.321911 -0.48555,-0.48209 z" /><path
               id="path1723"
               style="font-style:normal;font-variant:normal;font-weight:normal;font-stretch:normal;font-size:4.23333px;font-family:'Comic Sans MS';-inkscape-font-specification:'Comic Sans MS, Normal';font-variant-ligatures:normal;font-variant-caps:normal;font-variant-numeric:normal;font-feature-settings:normal;text-align:start;letter-spacing:0.182563px;writing-mode:lr-tb;text-anchor:start;stroke-width:0.264583"
               d="m -209.51282,99.529509 q 0.12244,-0.09168 0.39211,-0.26263 0.26182,-0.167644 0.38964,-0.265939 l 0.11748,-0.08797 q -0.17594,-0.224618 -0.59973,-0.707806 -0.39447,-0.450921 -0.5927,-0.715656 -0.0434,-0.05791 -0.14292,-0.166714 -0.0995,-0.108803 -0.14415,-0.168369 -0.0842,-0.112512 -0.10856,-0.220845 -0.0354,-0.143894 0.0622,-0.216993 0.0662,-0.04956 0.15382,-0.04288 0.0876,0.0067 0.14216,0.07948 0.0186,0.02482 0.0475,0.08065 0.0289,0.05583 0.0475,0.08065 0.0607,0.08107 0.19371,0.234552 0.13135,0.154717 0.19329,0.237446 0.17718,0.236607 0.53612,0.636651 0.38663,0.433551 0.54274,0.631695 l 0.14933,-0.114401 q 0.36236,-0.271334 0.60883,-0.373259 0.16004,-0.06561 0.25668,0.06345 0.0508,0.06784 0.0462,0.151344 -0.006,0.09508 -0.0878,0.148347 -0.0604,0.04005 -0.28704,0.168453 -0.18032,0.104041 -0.28291,0.180858 -0.0993,0.07434 -0.29866,0.228801 -0.19814,0.156118 -0.29742,0.230456 -0.1274,0.0954 -0.39087,0.264285 -0.26513,0.170122 -0.39253,0.265523 -0.0712,0.05328 -0.1563,0.03957 -0.0839,-0.01205 -0.13843,-0.08486 -0.0533,-0.07115 -0.0425,-0.156716 0.0121,-0.08391 0.0832,-0.137189 z" /><path
               id="path1725"
               style="font-style:normal;font-variant:normal;font-weight:normal;font-stretch:normal;font-size:4.23333px;font-family:'Comic Sans MS';-inkscape-font-specification:'Comic Sans MS, Normal';font-variant-ligatures:normal;font-variant-caps:normal;font-variant-numeric:normal;font-feature-settings:normal;text-align:start;letter-spacing:0.182563px;writing-mode:lr-tb;text-anchor:start;stroke-width:0.264583"
               d="m -212.80035,98.258495 q 0.51527,-0.272533 1.03673,-0.153153 0.55402,0.127883 0.82849,0.646814 0.33438,0.632219 0.2333,1.347444 -0.11497,0.79506 -0.73988,1.12558 -0.60116,0.31795 -1.03655,0.20215 -0.45397,-0.12 -0.77483,-0.72664 -0.33438,-0.63221 -0.25953,-1.321871 0.0874,-0.789806 0.71227,-1.120324 z m 1.16052,2.592095 q 0.44767,-0.23677 0.52249,-0.84691 0.0704,-0.561023 -0.19054,-1.054373 -0.18652,-0.352653 -0.56476,-0.435548 -0.3605,-0.0759 -0.7296,0.119316 -0.44401,0.234842 -0.49594,0.835208 -0.046,0.536427 0.21785,1.035257 0.23097,0.43671 0.52023,0.51054 0.27625,0.0714 0.72027,-0.16349 z" /><path
               id="path1727"
               style="font-style:normal;font-variant:normal;font-weight:normal;font-stretch:normal;font-size:4.23333px;font-family:'Comic Sans MS';-inkscape-font-specification:'Comic Sans MS, Normal';font-variant-ligatures:normal;font-variant-caps:normal;font-variant-numeric:normal;font-feature-settings:normal;text-align:start;letter-spacing:0.182563px;writing-mode:lr-tb;text-anchor:start;stroke-width:0.264583"
               d="m -217.32334,100.68096 q -0.031,-0.0943 -0.0718,-0.32452 -0.0338,-0.20866 0.14493,-0.26739 0.10801,-0.0355 0.30372,0.0568 1.04771,0.49335 2.55114,1.57889 l -0.13668,-0.44899 -0.14126,-0.44966 q -0.0536,-0.16299 -0.16659,-0.48703 -0.11499,-0.3234 -0.16921,-0.48835 -0.17361,-0.528241 0.0306,-0.595361 0.108,-0.0355 0.19343,0.01258 0.077,0.04216 0.10471,0.126599 0.0271,0.08248 0.0702,0.253264 0.0411,0.171434 0.0682,0.253911 0.04,0.121747 0.11154,0.365867 0.0722,0.24609 0.11219,0.36784 0.0426,0.1296 0.13433,0.38884 0.0924,0.2612 0.13496,0.39081 0.0407,0.12371 0.14426,0.35947 0.10424,0.23772 0.1449,0.36143 0.0297,0.0903 -0.0224,0.19013 -0.054,0.10043 -0.15221,0.1327 -0.10407,0.0342 -0.33211,-0.14324 -0.7297,-0.57177 -1.27989,-0.92837 -0.6545,-0.42241 -1.38255,-0.76408 0.0219,0.0864 0.082,0.24939 l 0.0872,0.24549 q 0.28333,0.86208 0.5179,1.3507 0.0246,0.0485 0.12078,0.18876 0.0832,0.12063 0.10769,0.19525 0.0749,0.22779 -0.13329,0.2962 -0.34169,0.1123 -0.76054,-1.16215 -0.0716,-0.21797 -0.20838,-0.65389 -0.1361,-0.43396 -0.20774,-0.65193 z" /><path
               id="path1729"
               style="font-style:normal;font-variant:normal;font-weight:normal;font-stretch:normal;font-size:4.23333px;font-family:'Comic Sans MS';-inkscape-font-specification:'Comic Sans MS, Normal';font-variant-ligatures:normal;font-variant-caps:normal;font-variant-numeric:normal;font-feature-settings:normal;text-align:start;letter-spacing:0.182563px;writing-mode:lr-tb;text-anchor:start;stroke-width:0.264583"
               d="m -219.3395,103.19103 q 0.1303,-0.0229 0.33243,-0.0311 l 0.33529,-0.0148 q -0.0572,-0.60067 -0.15187,-1.14019 -0.025,-0.14252 -0.07,-0.35079 -0.045,-0.20827 -0.07,-0.35079 -0.0336,-0.19137 -0.0469,-0.35064 l -0.63988,0.12071 q -0.0855,0.015 -0.15324,-0.0361 -0.0694,-0.0487 -0.0848,-0.13622 -0.0157,-0.0896 0.0326,-0.16102 0.0466,-0.069 0.13216,-0.0841 0.11401,-0.02 0.34096,-0.0662 0.22731,-0.0441 0.34132,-0.0641 0.13437,-0.0236 0.39668,-0.1074 0.25992,-0.0855 0.39633,-0.10945 0.0855,-0.015 0.15527,0.0357 0.0674,0.049 0.0827,0.13658 0.0154,0.0875 -0.0309,0.15863 -0.0483,0.0714 -0.13383,0.0864 -0.13234,0.0232 -0.43022,0.11959 0.009,0.16848 0.0457,0.38022 0.0247,0.14048 0.0743,0.33953 0.0479,0.20145 0.0722,0.3399 0.0826,0.4703 0.1492,1.18473 l 0.26324,-0.0546 0.2636,-0.0526 q 0.0875,-0.0154 0.15695,0.0333 0.0694,0.0487 0.0855,0.14029 0.0332,0.18935 -0.15493,0.24126 -0.16205,0.0452 -0.61403,0.12457 -0.40515,0.0711 -1.03129,0.0908 -0.18585,0.005 -0.21944,-0.18603 -0.0168,-0.0957 0.0424,-0.16485 0.0529,-0.0575 0.13226,-0.0715 z" /><path
               id="path1731"
               style="font-style:normal;font-variant:normal;font-weight:normal;font-stretch:normal;font-size:4.23333px;font-family:'Comic Sans MS';-inkscape-font-specification:'Comic Sans MS, Normal';font-variant-ligatures:normal;font-variant-caps:normal;font-variant-numeric:normal;font-feature-settings:normal;text-align:start;letter-spacing:0.182563px;writing-mode:lr-tb;text-anchor:start;stroke-width:0.264583"
               d="m -221.95993,100.69454 q 0.58262,-0.0183 0.99854,0.31811 0.44143,0.35837 0.45988,0.94513 0.0225,0.71485 -0.38268,1.31285 -0.45273,0.66361 -1.15931,0.68583 -0.67973,0.0214 -1.01991,-0.27401 -0.35503,-0.30732 -0.3766,-0.99324 -0.0225,-0.71485 0.34788,-1.30142 0.42561,-0.67103 1.1322,-0.69325 z m -0.0969,2.83838 q 0.50618,-0.0159 0.84156,-0.53107 0.30981,-0.47299 0.29227,-1.03082 -0.0125,-0.39874 -0.31584,-0.63945 -0.29045,-0.22662 -0.70779,-0.2135 -0.50204,0.0158 -0.81256,0.53222 -0.27709,0.46163 -0.25935,1.02565 0.0155,0.49379 0.24289,0.68724 0.21677,0.18552 0.71882,0.16973 z" /><path
               id="path1733"
               style="font-style:normal;font-variant:normal;font-weight:normal;font-stretch:normal;font-size:4.23333px;font-family:'Comic Sans MS';-inkscape-font-specification:'Comic Sans MS, Normal';font-variant-ligatures:normal;font-variant-caps:normal;font-variant-numeric:normal;font-feature-settings:normal;text-align:start;letter-spacing:0.182563px;writing-mode:lr-tb;text-anchor:start;stroke-width:0.264583"
               d="m -227.49766,100.30494 q 0.35694,-0.1525 0.9449,-0.0357 0.148,0.0294 0.32933,0.11388 0.21823,0.10024 0.31648,0.21037 l 0.0203,0.004 q 0.0872,0.0173 0.1339,0.0898 0.0467,0.0725 0.0294,0.15968 -0.0423,0.21288 -0.14467,0.633 -0.10483,0.42174 -0.14711,0.63462 -0.0471,0.23722 -0.13039,0.7096 -0.0857,0.47401 -0.13281,0.71122 -0.0165,0.0831 -0.11978,0.15745 -0.10328,0.0743 -0.18843,0.0574 -0.0487,-0.01 -0.29742,-0.20026 -0.28203,-0.21407 -0.32747,-0.23996 -0.53674,-0.31101 -0.8613,-0.79906 -0.38103,-0.57513 -0.26667,-1.15093 0.0688,-0.34669 0.29629,-0.63239 0.22541,-0.2861 0.54548,-0.42274 z m -2.3e-4,2.22961 q 0.17982,0.17691 0.86232,0.65596 l 0.10583,-0.58592 0.10947,-0.58309 0.25229,-1.10055 q -0.013,-0.009 -0.0373,-0.0348 -0.15466,-0.15505 -0.42634,-0.209 -0.46227,-0.0918 -0.70131,0.008 -0.22324,0.0948 -0.38349,0.29685 -0.16269,0.20373 -0.21141,0.44905 -0.11355,0.57174 0.42998,1.10328 z" /><path
               id="path1735"
               style="font-style:normal;font-variant:normal;font-weight:normal;font-stretch:normal;font-size:4.23333px;font-family:'Comic Sans MS';-inkscape-font-specification:'Comic Sans MS, Normal';font-variant-ligatures:normal;font-variant-caps:normal;font-variant-numeric:normal;font-feature-settings:normal;text-align:start;letter-spacing:0.182563px;writing-mode:lr-tb;text-anchor:start;stroke-width:0.264583"
               d="m -231.5919,101.91774 q 0.0273,0.01 0.057,0.0311 0.29619,0.21012 0.60211,0.31842 0.15978,0.0566 0.35914,0.0943 0.19935,0.0377 0.43898,0.0546 0.0273,-0.13287 0.0542,-0.20886 0.0959,-0.27085 0.29666,-0.73262 l -0.88244,-0.22032 q -0.38987,-0.0942 -0.4756,-0.12452 -0.0857,-0.0303 -0.12488,-0.10561 -0.0391,-0.0752 -0.007,-0.16684 0.0628,-0.17731 0.24964,-0.13528 l 0.47824,0.12327 0.9292,0.23687 q 0.0568,-0.13558 0.10677,-0.25822 0.0474,-0.12138 0.0853,-0.22855 0.15246,-0.43063 0.11701,-0.5287 -0.0274,-0.07111 -0.28661,-0.162864 -0.12081,-0.04277 -0.3645,-0.122468 -0.24632,-0.07844 -0.36908,-0.121899 -0.039,-0.0138 -0.1191,-0.02901 -0.0808,-0.01326 -0.11785,-0.02637 -0.20654,-0.07313 -0.1348,-0.275773 0.058,-0.163678 0.2353,-0.138165 0.19627,0.02782 0.80617,0.24375 0.60405,0.213856 0.71895,0.434344 0.12566,0.239645 -0.0958,0.865125 -0.0442,0.12471 -0.10243,0.27073 -0.0583,0.14602 -0.12872,0.31404 0.006,0.0524 -0.0124,0.10307 -0.0235,0.0663 -0.0791,0.10575 -0.23834,0.54933 -0.33354,0.81823 -0.0255,0.0721 -0.055,0.21734 -0.0302,0.1472 -0.0557,0.21929 -0.0821,0.23188 -0.27694,0.16289 -0.0818,-0.029 -0.12029,-0.10617 -0.2559,-0.0204 -0.47349,-0.0624 -0.21953,-0.0426 -0.40269,-0.10749 -0.4735,-0.16763 -0.71602,-0.38068 -0.11193,-0.0988 -0.0643,-0.23328 0.0276,-0.0779 0.0996,-0.12041 0.08,-0.0462 0.16375,-0.0166 z" /><path
               id="path1737"
               style="font-style:normal;font-variant:normal;font-weight:normal;font-stretch:normal;font-size:4.23333px;font-family:'Comic Sans MS';-inkscape-font-specification:'Comic Sans MS, Normal';font-variant-ligatures:normal;font-variant-caps:normal;font-variant-numeric:normal;font-feature-settings:normal;text-align:start;letter-spacing:0.182563px;writing-mode:lr-tb;text-anchor:start;stroke-width:0.264583"
               d="m -233.80919,99.082205 q 0.0499,0.02939 0.20361,0.151204 0.17274,-0.260493 0.5695,-0.933609 0.042,-0.07123 0.11767,-0.0938 0.0746,-0.02079 0.14409,0.02015 0.0712,0.04198 0.0892,0.117355 0.0169,0.07715 -0.0251,0.14838 l -0.30859,0.523535 q -0.15429,0.261767 -0.4666,0.718329 -0.33896,0.493631 -0.47372,0.714131 l -0.14485,0.24574 q -0.10391,0.17629 -0.17252,0.24383 -0.13332,0.13256 -0.25428,0.0325 -0.0675,-0.0158 -0.17779,-0.0688 -0.11031,-0.053 -0.26346,-0.14329 -0.32587,-0.19208 -0.47958,-0.58261 -0.16856,-0.430476 0.0351,-0.775938 0.2603,-0.441621 0.74938,-0.506058 0.43771,-0.05872 0.85796,0.188994 z m -0.92244,1.361415 q 0.0784,0.0462 0.14278,0.0794 0.0626,0.0321 0.10958,0.0502 l 0.19669,-0.32556 0.45515,-0.686687 -0.18224,-0.138608 q -0.29916,-0.176338 -0.59316,-0.145684 -0.32199,0.03336 -0.48783,0.31471 -0.11756,0.199442 0.0111,0.469639 0.11999,0.24828 0.34792,0.38263 z" /><path
               id="path1739"
               style="font-style:normal;font-variant:normal;font-weight:normal;font-stretch:normal;font-size:4.23333px;font-family:'Comic Sans MS';-inkscape-font-specification:'Comic Sans MS, Normal';font-variant-ligatures:normal;font-variant-caps:normal;font-variant-numeric:normal;font-feature-settings:normal;text-align:start;letter-spacing:0.182563px;writing-mode:lr-tb;text-anchor:start;stroke-width:0.264583"
               d="m -236.52299,95.623109 q 0.14951,0.117527 -0.0415,0.587908 -0.0727,0.17947 -0.29677,0.59493 0.18364,0.107549 0.49777,0.259828 l 0.50252,0.250425 q 0.2486,-0.14901 0.76716,-0.403953 0.12354,-0.05012 0.21291,0.02014 0.065,0.0511 0.08,0.139103 0.0133,0.08673 -0.0416,0.156606 -0.0613,0.078 -0.71166,0.400251 -0.006,0.06397 -0.049,0.119221 -0.10347,0.13163 -0.29211,0.04382 -0.45863,0.202133 -1.09653,0.431623 -0.86929,0.31314 -0.96355,0.239048 -0.12838,-0.10092 -0.035,-0.316723 l 0.32685,-0.6265 0.64569,-1.319759 0.10921,-0.329575 q 0.0564,-0.168676 0.0908,-0.212553 0.0549,-0.06988 0.14236,-0.0774 0.0874,-0.0075 0.15242,0.04357 z m -0.88649,2.308389 1.05368,-0.383801 q -0.23623,-0.104195 -0.69221,-0.346947 z" /><path
               id="path1741"
               style="font-style:normal;font-variant:normal;font-weight:normal;font-stretch:normal;font-size:4.23333px;font-family:'Comic Sans MS';-inkscape-font-specification:'Comic Sans MS, Normal';font-variant-ligatures:normal;font-variant-caps:normal;font-variant-numeric:normal;font-feature-settings:normal;text-align:start;letter-spacing:0.182563px;writing-mode:lr-tb;text-anchor:start;stroke-width:0.264583"
               d="m -238.63431,93.608524 q 0.37884,0.08452 0.78809,0.522525 0.10302,0.110257 0.20094,0.284689 0.11868,0.208775 0.13418,0.355548 l 0.0141,0.0151 q 0.0607,0.06495 0.0563,0.151083 -0.004,0.08614 -0.0693,0.146819 -0.15859,0.148177 -0.48695,0.429527 -0.33129,0.281251 -0.48988,0.429428 -0.17671,0.165112 -0.52006,0.500065 -0.34627,0.334853 -0.52299,0.499965 -0.0619,0.05786 -0.18916,0.05793 -0.12724,6.9e-5 -0.18651,-0.06337 -0.0339,-0.03625 -0.1246,-0.336209 -0.10405,-0.338438 -0.12583,-0.385976 -0.25428,-0.565832 -0.23294,-1.151559 0.0263,-0.689393 0.45527,-1.090177 0.25827,-0.241317 0.60971,-0.340538 0.35002,-0.10073 0.68966,-0.02486 z m -1.30161,1.810239 q 0.0428,0.248609 0.3173,1.035961 l 0.42793,-0.41398 0.42924,-0.409549 0.84724,-0.746356 q -0.005,-0.01481 -0.01,-0.05006 -0.0351,-0.216174 -0.22418,-0.418563 -0.32176,-0.344364 -0.57425,-0.402657 -0.23657,-0.05337 -0.48466,0.01719 -0.25101,0.07045 -0.43377,0.241211 -0.42592,0.397962 -0.29485,1.146808 z" /><path
               id="path1743"
               style="font-style:normal;font-variant:normal;font-weight:normal;font-stretch:normal;font-size:4.23333px;font-family:'Comic Sans MS';-inkscape-font-specification:'Comic Sans MS, Normal';font-variant-ligatures:normal;font-variant-caps:normal;font-variant-numeric:normal;font-feature-settings:normal;text-align:start;letter-spacing:0.182563px;writing-mode:lr-tb;text-anchor:start;stroke-width:0.264583"
               d="m -240.16424,91.446441 q 0.3618,0.531376 0.23395,1.001033 -0.10178,0.37939 -0.54638,0.762131 -0.19954,0.173375 -0.84881,0.615449 -0.23921,0.16287 -0.39313,0.252667 -0.16246,0.09561 -0.23793,0.116991 -0.15381,0.04221 -0.22943,-0.06885 -0.10703,-0.157192 0.18172,-0.353799 l 1.00296,-0.682888 q 1.03541,-0.704992 0.54215,-1.429441 -0.46418,-0.681734 -2.20696,0.504887 -0.0649,0.04421 -0.16744,0.114008 -0.10135,0.07151 -0.13553,0.09478 -0.10593,0.07213 -0.21183,0.08922 -0.13509,0.02196 -0.19907,-0.07201 -0.11634,-0.17086 0.11774,-0.33024 0.07,-0.0477 0.21071,-0.145964 0.14181,-0.09656 0.21186,-0.144256 1.97857,-1.347163 2.67542,-0.323708 z" /><path
               id="path1745"
               style="font-style:normal;font-variant:normal;font-weight:normal;font-stretch:normal;font-size:4.23333px;font-family:'Comic Sans MS';-inkscape-font-specification:'Comic Sans MS, Normal';font-variant-ligatures:normal;font-variant-caps:normal;font-variant-numeric:normal;font-feature-settings:normal;text-align:start;letter-spacing:0.182563px;writing-mode:lr-tb;text-anchor:start;stroke-width:0.264583"
               d="m -242.21116,87.740577 q 0.0814,0.171874 -0.29935,0.507686 -0.14514,0.12819 -0.53098,0.400093 0.11639,0.178171 0.32961,0.454576 l 0.33806,0.448283 q 0.28897,-0.02248 0.86679,-0.01936 0.13293,0.01024 0.18159,0.112992 0.0354,0.07473 0.01,0.160165 -0.0267,0.08357 -0.10708,0.121608 -0.0897,0.04246 -0.81547,0.0408 -0.0335,0.05476 -0.0971,0.08484 -0.15132,0.07166 -0.28098,-0.09108 -0.50065,-0.02366 -1.17393,-0.102797 -0.9177,-0.107483 -0.96901,-0.215838 -0.0699,-0.147587 0.10996,-0.299075 l 0.57198,-0.414935 1.16658,-0.893184 0.24475,-0.24626 q 0.12567,-0.125833 0.17611,-0.149719 0.0803,-0.03804 0.16193,-0.0058 0.0816,0.03226 0.11699,0.106987 z m -1.82307,1.670614 1.11425,0.126484 q -0.16496,-0.198627 -0.46478,-0.619278 z" /><path
               id="path1747"
               style="font-style:normal;font-variant:normal;font-weight:normal;font-stretch:normal;font-size:4.23333px;font-family:'Comic Sans MS';-inkscape-font-specification:'Comic Sans MS, Normal';font-variant-ligatures:normal;font-variant-caps:normal;font-variant-numeric:normal;font-feature-settings:normal;text-align:start;letter-spacing:0.182563px;writing-mode:lr-tb;text-anchor:start;stroke-width:0.264583"
               d="m -245.96195,84.422323 q 0.0309,0.128621 0.0517,0.329848 l 0.0357,0.333717 q 0.59594,-0.09449 1.12851,-0.222629 0.14068,-0.03385 0.34575,-0.09169 0.20506,-0.05784 0.34574,-0.09169 0.18891,-0.04545 0.34705,-0.06862 l -0.16036,-0.631122 q -0.0203,-0.08441 0.0264,-0.155186 0.0443,-0.0723 0.13068,-0.0931 0.0884,-0.02128 0.16274,0.0225 0.0718,0.04225 0.0921,0.126656 0.0271,0.112543 0.0873,0.33618 0.0582,0.224119 0.0853,0.336663 0.0319,0.13264 0.13192,0.389217 0.10152,0.254084 0.13392,0.388734 0.0203,0.08441 -0.026,0.157195 -0.0447,0.0703 -0.13116,0.09109 -0.0864,0.02079 -0.16024,-0.02097 -0.0743,-0.04377 -0.0946,-0.128183 -0.0314,-0.130631 -0.14616,-0.421932 -0.16762,0.01907 -0.37663,0.06936 -0.13867,0.03337 -0.33425,0.0953 -0.19807,0.06041 -0.33473,0.09329 -0.46424,0.111699 -1.17314,0.222734 l 0.0709,0.259327 0.0689,0.259811 q 0.0208,0.08642 -0.0235,0.158722 -0.0443,0.0723 -0.1347,0.09406 -0.1869,0.04497 -0.25044,-0.13959 -0.0553,-0.158918 -0.16259,-0.605072 -0.0962,-0.399931 -0.15488,-1.023634 -0.0169,-0.18515 0.17201,-0.230603 0.0944,-0.02273 0.16717,0.03206 0.0607,0.04917 0.0796,0.127548 z" /></g><circle
             style="opacity:0;fill:none;fill-opacity:1;fill-rule:nonzero;stroke:#000000;stroke-width:0.4;stroke-linecap:butt;stroke-linejoin:miter;stroke-miterlimit:4;stroke-dasharray:none;stroke-dashoffset:0;stroke-opacity:1"
             id="circle1425"
             cx="-127.0627"
             cy="95.367569"
             r="21.188923" /><circle
             transform="scale(1,-1)"
             style="opacity:0;fill:none;fill-opacity:1;fill-rule:nonzero;stroke:#000000;stroke-width:0.4;stroke-linecap:butt;stroke-linejoin:miter;stroke-miterlimit:4;stroke-dasharray:none;stroke-dashoffset:0;stroke-opacity:1"
             id="circle1427"
             cx="-126.93068"
             cy="-95.438446"
             r="21.188923" /><g
             id="text1433"
             style="font-style:normal;font-variant:normal;font-weight:normal;font-stretch:normal;font-size:4.23333px;line-height:1.25;font-family:Carlito;-inkscape-font-specification:'Carlito, Normal';font-variant-ligatures:normal;font-variant-caps:normal;font-variant-numeric:normal;font-feature-settings:normal;text-align:start;letter-spacing:0px;word-spacing:0px;writing-mode:lr-tb;text-anchor:start;fill:#000000;fill-opacity:1;stroke:none;stroke-width:0.249603"
             transform="matrix(-1.0561319,0.09067043,-0.09067043,-1.0561319,-303.74042,182.28168)"
             aria-label="CATARROJA"><path
               id="path1750"
               style="font-style:normal;font-variant:normal;font-weight:normal;font-stretch:normal;font-size:4.23333px;font-family:'Comic Sans MS';-inkscape-font-specification:'Comic Sans MS, Normal';font-variant-ligatures:normal;font-variant-caps:normal;font-variant-numeric:normal;font-feature-settings:normal;text-align:start;writing-mode:lr-tb;text-anchor:start;stroke-width:0.249603"
               d="m -153.0609,64.502288 q 0.008,0.132058 -0.14296,0.2073 -0.12862,0.06564 -0.15456,0.11688 -0.0201,0.04468 -0.01,0.215945 0.0178,0.299193 0.49763,0.637143 0.64438,0.458608 1.19531,0.425807 0.26618,-0.01585 0.44788,-0.198535 0.18764,-0.187183 0.1729,-0.434791 -0.0127,-0.212531 -0.13479,-0.420613 -0.069,-0.115992 -0.26535,-0.35279 -0.0937,-0.112454 -0.0972,-0.172293 -0.005,-0.08873 0.0592,-0.152619 0.0625,-0.06377 0.145,-0.06868 0.0928,-0.0055 0.16768,0.0687 0.51527,0.515992 0.54844,1.073111 0.0254,0.427124 -0.28509,0.741724 -0.30081,0.303669 -0.73412,0.329467 -0.6995,0.04165 -1.46896,-0.500626 -0.64194,-0.452541 -0.67155,-0.949821 -0.006,-0.101107 -4.9e-4,-0.182194 0.003,-0.08096 0.0204,-0.144094 -0.10954,-0.06595 -0.11642,-0.181505 -0.008,-0.142375 0.17709,-0.190695 0.16517,-0.04296 0.40865,-0.05746 0.0846,-0.005 0.15127,0.03655 0.0838,0.05092 0.0899,0.154091 z" /><path
               id="path1752"
               style="font-style:normal;font-variant:normal;font-weight:normal;font-stretch:normal;font-size:4.23333px;font-family:'Comic Sans MS';-inkscape-font-specification:'Comic Sans MS, Normal';font-variant-ligatures:normal;font-variant-caps:normal;font-variant-numeric:normal;font-feature-settings:normal;text-align:start;writing-mode:lr-tb;text-anchor:start;stroke-width:0.249603"
               d="m -151.1778,61.537702 q 0.0364,0.186649 -0.41546,0.418033 -0.17229,0.08838 -0.61333,0.256573 0.0688,0.201394 0.20713,0.521894 l 0.21689,0.517886 q 0.28557,0.04958 0.84472,0.195304 0.12628,0.04275 0.14806,0.154336 0.0158,0.08115 -0.0303,0.157554 -0.0466,0.07437 -0.13381,0.09139 -0.0974,0.019 -0.80028,-0.161853 -0.046,0.04478 -0.115,0.05824 -0.16433,0.03207 -0.24979,-0.157651 -0.47929,-0.146565 -1.11218,-0.389522 -0.86274,-0.330788 -0.8857,-0.448458 -0.0313,-0.160275 0.18042,-0.262656 l 0.65673,-0.260828 1.35103,-0.577424 0.29798,-0.17819 q 0.15285,-0.0909 0.20763,-0.101589 0.0872,-0.01702 0.15835,0.03439 0.0711,0.05141 0.0869,0.132564 z m -2.17917,1.16865 1.0485,0.397736 q -0.1108,-0.233212 -0.29745,-0.714877 z" /><path
               id="path1754"
               style="font-style:normal;font-variant:normal;font-weight:normal;font-stretch:normal;font-size:4.23333px;font-family:'Comic Sans MS';-inkscape-font-specification:'Comic Sans MS, Normal';font-variant-ligatures:normal;font-variant-caps:normal;font-variant-numeric:normal;font-feature-settings:normal;text-align:start;writing-mode:lr-tb;text-anchor:start;stroke-width:0.249603"
               d="m -154.73708,59.238119 q 0.0503,0.144473 0.13139,0.453282 0.0804,0.30032 0.1353,0.451923 l 0.0482,0.138616 q 0.26739,-0.09956 0.85632,-0.356925 0.54928,-0.239195 0.86166,-0.347843 0.0683,-0.02377 0.20219,-0.08564 0.13386,-0.06188 0.20415,-0.08632 0.13276,-0.04617 0.24336,-0.0365 0.14787,0.0098 0.18793,0.125037 0.0272,0.07809 -0.006,0.159581 -0.0329,0.08149 -0.11884,0.111366 -0.0293,0.01019 -0.0912,0.0208 -0.062,0.01061 -0.0913,0.02079 -0.0957,0.03327 -0.28224,0.113486 -0.18726,0.07826 -0.28487,0.112213 -0.27919,0.0971 -0.76923,0.317879 -0.53035,0.236989 -0.7665,0.325689 l 0.0637,0.176984 q 0.14871,0.427562 0.17112,0.693334 0.014,0.172399 -0.13828,0.225365 -0.08,0.02784 -0.15822,-0.0019 -0.0887,-0.0348 -0.11476,-0.1286 -0.0199,-0.06969 -0.0735,-0.324597 -0.0445,-0.203383 -0.0866,-0.324428 -0.0407,-0.11714 -0.12749,-0.353967 -0.0887,-0.236148 -0.12944,-0.353288 -0.0523,-0.150331 -0.13335,-0.452603 -0.0817,-0.304225 -0.13402,-0.454555 -0.0292,-0.08395 0.01,-0.16094 0.0369,-0.07631 0.12283,-0.106188 0.0839,-0.0292 0.16221,0.007 0.0763,0.03692 0.10551,0.120876 z" /><path
               id="path1756"
               style="font-style:normal;font-variant:normal;font-weight:normal;font-stretch:normal;font-size:4.23333px;font-family:'Comic Sans MS';-inkscape-font-specification:'Comic Sans MS, Normal';font-variant-ligatures:normal;font-variant-caps:normal;font-variant-numeric:normal;font-feature-settings:normal;text-align:start;writing-mode:lr-tb;text-anchor:start;stroke-width:0.249603"
               d="m -153.41679,55.989963 q 0.0872,0.168978 -0.28174,0.517662 -0.14065,0.133097 -0.51693,0.418086 0.12243,0.17407 0.34501,0.442992 l 0.35326,0.436414 q 0.28802,-0.03239 0.86561,-0.0491 0.1332,0.0057 0.18536,0.106692 0.0379,0.07347 0.015,0.159744 -0.0239,0.08444 -0.10285,0.125212 -0.0882,0.04552 -0.81359,0.06877 -0.0316,0.05588 -0.0941,0.08812 -0.14878,0.07681 -0.28395,-0.08138 -0.50116,-0.0065 -1.17676,-0.06244 -0.92086,-0.07592 -0.97585,-0.182446 -0.0749,-0.145101 0.0996,-0.302674 l 0.5574,-0.434325 1.13523,-0.932706 0.23616,-0.254517 q 0.12127,-0.130073 0.17086,-0.155676 0.079,-0.04077 0.16164,-0.01134 0.0827,0.02944 0.12059,0.102908 z m -1.76464,1.732213 1.11793,0.08816 q -0.17168,-0.192848 -0.48576,-0.602958 z" /><path
               id="path1758"
               style="font-style:normal;font-variant:normal;font-weight:normal;font-stretch:normal;font-size:4.23333px;font-family:'Comic Sans MS';-inkscape-font-specification:'Comic Sans MS, Normal';font-variant-ligatures:normal;font-variant-caps:normal;font-variant-numeric:normal;font-feature-settings:normal;text-align:start;writing-mode:lr-tb;text-anchor:start;stroke-width:0.249603"
               d="m -155.04399,53.645919 q 0.0452,0.06426 0.0303,0.158107 -0.15959,0.948436 0.13068,1.767665 l 0.32196,-0.246489 0.32722,-0.242604 q 0.0744,-0.0523 0.15792,-0.03772 0.084,0.01169 0.13512,0.08441 0.0511,0.07272 0.0349,0.15742 -0.0158,0.08182 -0.0902,0.134119 -0.1336,0.0939 -0.38791,0.292843 -0.2572,0.198444 -0.3908,0.292341 -0.15558,0.109349 -0.48715,0.291845 -0.33156,0.182497 -0.48545,0.290657 -0.0863,0.06062 -0.24348,0.196386 -0.15842,0.134077 -0.24467,0.194694 -0.0964,0.06775 -0.20715,0.06474 -0.1348,-0.0013 -0.20598,-0.12052 l -0.25431,-0.430153 q -0.13409,-0.251894 -0.16125,-0.470292 -0.11778,-0.940463 0.40648,-1.30892 0.25706,-0.180663 0.61895,-0.08634 0.2909,0.07599 0.57107,0.298486 -0.0872,-0.724443 0.0426,-1.204767 0.0232,-0.08201 0.0841,-0.124793 0.071,-0.04992 0.1603,-0.03434 0.0881,0.01389 0.13681,0.08323 z m -1.47859,2.64856 0.15561,0.264555 0.19275,-0.160729 q 0.11682,-0.09979 0.19631,-0.155655 0.13529,-0.09509 0.35199,-0.214541 l 0.3615,-0.201011 q -0.0166,-0.02368 -0.0494,-0.07391 -0.034,-0.05192 -0.0518,-0.07729 -0.30309,-0.431246 -0.56903,-0.565201 -0.11899,-0.05786 -0.2606,-0.07961 -0.1577,-0.02307 -0.22365,0.02328 -0.23507,0.165211 -0.25022,0.575043 -0.0137,0.375961 0.14655,0.665061 z" /><path
               id="path1760"
               style="font-style:normal;font-variant:normal;font-weight:normal;font-stretch:normal;font-size:4.23333px;font-family:'Comic Sans MS';-inkscape-font-specification:'Comic Sans MS, Normal';font-variant-ligatures:normal;font-variant-caps:normal;font-variant-numeric:normal;font-feature-settings:normal;text-align:start;writing-mode:lr-tb;text-anchor:start;stroke-width:0.249603"
               d="m -156.80606,51.644692 q 0.0528,0.05813 0.0498,0.153095 -0.04,0.960937 0.3502,1.737549 l 0.28869,-0.284732 0.29439,-0.281533 q 0.0673,-0.06117 0.15198,-0.05713 0.0848,0.0011 0.1446,0.0669 0.0598,0.06577 0.0542,0.151843 -0.005,0.08315 -0.0727,0.144321 -0.12085,0.109832 -0.34835,0.338953 -0.23043,0.228982 -0.35127,0.338814 -0.14073,0.127906 -0.44693,0.350343 -0.3062,0.222438 -0.4454,0.348954 -0.078,0.0709 -0.21708,0.225228 -0.14045,0.152795 -0.21846,0.2237 -0.0872,0.07925 -0.19746,0.09008 -0.1339,0.01556 -0.2194,-0.09388 l -0.30599,-0.395062 q -0.16447,-0.233198 -0.21867,-0.446499 -0.23419,-0.918421 0.24,-1.349408 0.23251,-0.211323 0.60334,-0.162893 0.29811,0.03911 0.60385,0.224905 -0.17693,-0.7079 -0.10804,-1.200669 0.0128,-0.08426 0.0679,-0.13431 0.0642,-0.05839 0.15476,-0.05407 0.0891,0.0028 0.14613,0.06551 z m -1.1366,2.812341 0.18741,0.243072 0.17118,-0.18352 q 0.10347,-0.113588 0.17536,-0.178932 0.12237,-0.111222 0.32248,-0.25678 l 0.33359,-0.244543 q -0.0195,-0.02141 -0.0582,-0.06716 -0.0402,-0.04728 -0.061,-0.07023 -0.35452,-0.390062 -0.63511,-0.489789 -0.12527,-0.04256 -0.26849,-0.04647 -0.15934,-0.0032 -0.219,0.05101 -0.21262,0.193249 -0.17652,0.601768 0.0333,0.374731 0.22838,0.641581 z" /><path
               id="path1762"
               style="font-style:normal;font-variant:normal;font-weight:normal;font-stretch:normal;font-size:4.23333px;font-family:'Comic Sans MS';-inkscape-font-specification:'Comic Sans MS, Normal';font-variant-ligatures:normal;font-variant-caps:normal;font-variant-numeric:normal;font-feature-settings:normal;text-align:start;writing-mode:lr-tb;text-anchor:start;stroke-width:0.249603"
               d="m -158.231,50.236143 q 0.44908,0.371623 0.53851,0.899049 0.094,0.560757 -0.28022,1.013031 -0.45597,0.55101 -1.15537,0.73154 -0.77848,0.19827 -1.32312,-0.252421 -0.52394,-0.43356 -0.5837,-0.880101 -0.063,-0.465322 0.3745,-0.994037 0.45597,-0.551009 1.12171,-0.74598 0.76305,-0.221772 1.30769,0.228919 z m -1.95005,2.064734 q 0.39017,0.322863 0.98244,0.158318 0.54521,-0.149827 0.90102,-0.579806 0.25434,-0.307355 0.18607,-0.688496 -0.0679,-0.362086 -0.38964,-0.628284 -0.38698,-0.320228 -0.96146,-0.138277 -0.51314,0.16295 -0.8729,0.597706 -0.31496,0.380611 -0.27239,0.67609 0.0399,0.282521 0.42686,0.602749 z" /><path
               id="path1764"
               style="font-style:normal;font-variant:normal;font-weight:normal;font-stretch:normal;font-size:4.23333px;font-family:'Comic Sans MS';-inkscape-font-specification:'Comic Sans MS, Normal';font-variant-ligatures:normal;font-variant-caps:normal;font-variant-numeric:normal;font-feature-settings:normal;text-align:start;writing-mode:lr-tb;text-anchor:start;stroke-width:0.249603"
               d="m -163.15863,50.250796 q 0.0318,0.0193 0.10207,0.07885 0.0674,0.06024 0.10982,0.08598 0.0866,0.05254 0.20645,0.118004 l 0.11876,-0.21566 q 0.79773,-1.31481 1.33617,-1.807746 0.35682,-0.32509 0.64841,-0.148173 0.30749,0.186567 0.47459,0.592587 0.18389,0.450061 -0.0102,0.769928 -0.13189,0.217368 -0.31038,0.109073 -0.17849,-0.108295 -0.0487,-0.322128 0.089,-0.146679 -0.0316,-0.418114 -0.11606,-0.259004 -0.29455,-0.367299 -0.14491,-0.08792 -0.74079,0.766677 -0.2817,0.404514 -0.6677,1.040712 -0.03,0.04948 -0.10697,0.196221 l 0.10888,0.06364 q 0.0689,0.04182 0.20638,0.130057 0.13463,0.08894 0.20532,0.131825 0.0778,0.04718 0.10075,0.128827 0.023,0.08165 -0.0285,0.166475 -0.11044,0.182023 -0.35609,0.03298 -0.0601,-0.03646 -0.17527,-0.113597 -0.11518,-0.07714 -0.1735,-0.112524 -0.11134,-0.06755 -0.33975,-0.189208 -0.23124,-0.120962 -0.34258,-0.188513 -0.40292,-0.244467 -0.27854,-0.449464 0.0429,-0.07069 0.12384,-0.09652 0.0877,-0.02899 0.16369,0.01712 z" /><path
               id="path1766"
               style="font-style:normal;font-variant:normal;font-weight:normal;font-stretch:normal;font-size:4.23333px;font-family:'Comic Sans MS';-inkscape-font-specification:'Comic Sans MS, Normal';font-variant-ligatures:normal;font-variant-caps:normal;font-variant-numeric:normal;font-feature-settings:normal;text-align:start;writing-mode:lr-tb;text-anchor:start;stroke-width:0.249603"
               d="m -164.41608,46.69816 q 0.17477,0.07497 0.11164,0.578698 -0.024,0.192157 -0.13321,0.651361 0.20518,0.05652 0.54796,0.122585 l 0.55012,0.112272 q 0.20173,-0.208113 0.63694,-0.58823 0.10642,-0.08031 0.2109,-0.03549 0.076,0.0326 0.11315,0.113761 0.0353,0.08035 2.2e-4,0.162036 -0.0391,0.09118 -0.58428,0.570334 0.0111,0.06324 -0.0166,0.127832 -0.066,0.153873 -0.27091,0.117709 -0.39094,0.313634 -0.94801,0.699954 -0.75906,0.526851 -0.86924,0.479589 -0.15007,-0.06437 -0.11553,-0.296968 l 0.15412,-0.689624 0.28328,-1.441681 0.0205,-0.346594 q 0.0109,-0.177504 0.0329,-0.228795 0.035,-0.08169 0.11756,-0.111515 0.0825,-0.02983 0.15851,0.0028 z m -0.26081,2.458963 0.91896,-0.642695 q -0.25512,-0.03971 -0.7583,-0.15658 z" /></g><g
             id="text1449"
             style="font-style:normal;font-variant:normal;font-weight:normal;font-stretch:normal;font-size:4.23333px;line-height:1.25;font-family:'Comic Sans MS';-inkscape-font-specification:'Comic Sans MS, Normal';font-variant-ligatures:normal;font-variant-caps:normal;font-variant-numeric:normal;font-feature-settings:normal;text-align:start;letter-spacing:0px;word-spacing:0px;writing-mode:lr-tb;text-anchor:start;fill:#000000;fill-opacity:1;stroke:none;stroke-width:0.264583"
             transform="rotate(79.761404,-167.2313,109.90468)"
             aria-label="Centro Concertado"><path
               id="path1769"
               style="font-style:normal;font-variant:normal;font-weight:normal;font-stretch:normal;font-size:3.52778px;font-family:'Comic Sans MS';-inkscape-font-specification:'Comic Sans MS, Normal';font-variant-ligatures:normal;font-variant-caps:normal;font-variant-numeric:normal;font-feature-settings:normal;text-align:start;writing-mode:lr-tb;text-anchor:start"
               d="m -152.64621,64.839599 q 0.005,0.110108 -0.12086,0.171554 -0.10772,0.05363 -0.12976,0.09611 -0.0171,0.03707 -0.0101,0.179863 0.0124,0.249464 0.40938,0.535062 0.53314,0.387508 0.9925,0.364753 0.22194,-0.01099 0.37486,-0.161716 0.15792,-0.154419 0.1477,-0.360872 -0.009,-0.177205 -0.10883,-0.351613 -0.0566,-0.09723 -0.21818,-0.296182 -0.0771,-0.09449 -0.0796,-0.144378 -0.004,-0.07398 0.0506,-0.126684 0.0526,-0.05262 0.1214,-0.05603 0.0774,-0.0038 0.13915,0.05864 0.42508,0.434253 0.4481,0.898771 0.0176,0.356131 -0.24373,0.615704 -0.25318,0.250545 -0.61447,0.268443 -0.58323,0.02889 -1.21991,-0.429374 -0.53117,-0.382432 -0.55171,-0.797058 -0.004,-0.0843 0.001,-0.151824 0.004,-0.06744 0.0182,-0.119904 -0.0907,-0.05587 -0.0955,-0.152213 -0.006,-0.11871 0.14915,-0.157434 0.13799,-0.03443 0.341,-0.04449 0.0705,-0.0035 0.12575,0.03171 0.0694,0.04313 0.0737,0.12915 z" /><path
               id="path1771"
               style="font-style:normal;font-variant:normal;font-weight:normal;font-stretch:normal;font-size:3.52778px;font-family:'Comic Sans MS';-inkscape-font-specification:'Comic Sans MS, Normal';font-variant-ligatures:normal;font-variant-caps:normal;font-variant-numeric:normal;font-feature-settings:normal;text-align:start;writing-mode:lr-tb;text-anchor:start"
               d="m -150.80395,63.471187 q 0.0562,0.385213 -0.10153,0.651957 -0.175,0.291888 -0.5585,0.347872 -0.44317,0.06469 -0.77451,-0.10628 -0.36135,-0.185741 -0.41833,-0.576067 -0.0413,-0.282944 0.028,-0.475849 0.0855,-0.237047 0.32926,-0.272628 0.17044,-0.02488 0.33833,0.147322 0.0738,0.07627 0.24365,0.333483 l 0.40356,0.606076 q 0.12754,-0.116103 0.17847,-0.268026 0.0507,-0.153627 0.0231,-0.342824 -0.0172,-0.117609 -0.0846,-0.269657 -0.0856,-0.192918 -0.18441,-0.237683 -0.1005,-0.04452 -0.1102,-0.110991 -0.009,-0.05966 0.0306,-0.112396 0.0373,-0.05419 0.097,-0.0629 0.1892,-0.02762 0.37009,0.257578 0.15398,0.243866 0.19005,0.491016 z m -1.54606,0.272694 q 0.0304,0.207947 0.21244,0.322372 0.18037,0.114675 0.51418,0.135578 l -0.32525,-0.486948 q -0.19503,-0.286615 -0.32498,-0.401687 -0.11496,0.166491 -0.0764,0.430685 z" /><path
               id="path1773"
               style="font-style:normal;font-variant:normal;font-weight:normal;font-stretch:normal;font-size:3.52778px;font-family:'Comic Sans MS';-inkscape-font-specification:'Comic Sans MS, Normal';font-variant-ligatures:normal;font-variant-caps:normal;font-variant-numeric:normal;font-feature-settings:normal;text-align:start;writing-mode:lr-tb;text-anchor:start"
               d="m -151.25716,61.052504 q 0.0344,0.144081 -0.11864,0.200149 l -0.3557,0.1346 q -0.19041,0.0703 -0.36129,0.111145 -0.0469,0.01121 -0.16036,0.03301 -0.11386,0.02013 -0.16077,0.03134 -0.36187,0.08649 -0.32984,0.220518 0.0448,0.187641 0.30851,0.305273 0.23956,0.105683 0.57032,0.118726 0.0661,-0.01226 0.16779,-0.02416 0.0862,-0.01 0.16491,-0.02879 0.0503,-0.01201 0.14838,-0.04609 0.0981,-0.03408 0.14838,-0.04609 0.0754,-0.01802 0.13352,0.01768 0.0577,0.03402 0.0749,0.106064 0.0176,0.07372 -0.0185,0.130162 -0.0361,0.05645 -0.11149,0.07447 -0.0503,0.01201 -0.14798,0.04776 -0.0981,0.03408 -0.14838,0.04609 -0.17256,0.04124 -0.48308,0.09066 -0.3126,0.04815 -0.48516,0.08939 -0.0536,0.01281 -0.15756,0.04474 -0.10435,0.03025 -0.15796,0.04306 -0.072,0.01722 -0.12848,-0.01888 -0.0585,-0.03737 -0.0753,-0.10774 -0.0368,-0.154133 0.17735,-0.221265 l 0.19482,-0.05187 q -0.44255,-0.191769 -0.51342,-0.488308 -0.0641,-0.268058 0.14693,-0.430064 0.14027,-0.109679 0.44693,-0.190056 l 0.16921,-0.04044 0.15621,-0.03556 q 0.13906,-0.03323 0.3518,-0.121271 0.21066,-0.08931 0.34804,-0.122146 0.0737,-0.01762 0.13056,0.02016 0.0581,0.0357 0.0753,0.107739 z" /><path
               id="path1775"
               style="font-style:normal;font-variant:normal;font-weight:normal;font-stretch:normal;font-size:3.52778px;font-family:'Comic Sans MS';-inkscape-font-specification:'Comic Sans MS, Normal';font-variant-ligatures:normal;font-variant-caps:normal;font-variant-numeric:normal;font-feature-settings:normal;text-align:start;writing-mode:lr-tb;text-anchor:start"
               d="m -153.27577,59.939691 q 0.0113,0.03436 0.0237,0.08289 0.0118,0.04689 0.0231,0.08125 0.0124,0.03763 0.0978,0.214444 l 0.95676,-0.349374 0.0714,-0.02533 0.0829,-0.0291 q 0.35617,-0.124488 0.41487,0.05386 0.0215,0.06545 -0.005,0.128536 -0.0269,0.06145 -0.0907,0.08246 -0.0622,0.02047 -0.18814,0.05649 -0.12597,0.03602 -0.18815,0.05649 l -0.94476,0.34724 q 0.0344,0.121057 0.0917,0.37239 0.0283,0.152084 -0.11405,0.198938 -0.072,0.0237 -0.13398,-0.0049 -0.062,-0.02856 -0.0846,-0.09728 l -0.0853,-0.352756 q -0.0834,0.02747 -0.21983,0.08143 -0.13856,0.05286 -0.20074,0.07332 -0.0687,0.02262 -0.12851,-0.01029 -0.0614,-0.03237 -0.0841,-0.10109 -0.0485,-0.147258 0.18397,-0.250968 0.0589,-0.02483 0.144,-0.05284 l 0.096,-0.02796 0.10198,-0.03175 q -0.093,-0.194271 -0.10265,-0.223723 -0.056,-0.170164 -0.0569,-0.227908 -1.3e-4,-0.110579 0.12095,-0.150432 0.072,-0.0237 0.13452,0.0065 0.0603,0.0291 0.0835,0.09945 z" /><path
               id="path1777"
               style="font-style:normal;font-variant:normal;font-weight:normal;font-stretch:normal;font-size:3.52778px;font-family:'Comic Sans MS';-inkscape-font-specification:'Comic Sans MS, Normal';font-variant-ligatures:normal;font-variant-caps:normal;font-variant-numeric:normal;font-feature-settings:normal;text-align:start;writing-mode:lr-tb;text-anchor:start"
               d="m -153.75082,58.261379 q 0.20318,-0.07228 0.26523,0.07541 0.0574,0.136575 -0.0999,0.202628 -0.0302,0.01268 -0.10916,0.05147 l -0.1314,0.06081 q 0.13559,0.238241 0.31014,0.342405 0.16261,0.09797 0.41001,0.104266 l 0.86894,-0.368801 q 0.1604,-0.06739 0.22645,0.08983 0.0587,0.139752 -0.10168,0.207139 l -1.11484,0.468373 q -0.0524,0.02202 -0.15855,0.06288 -0.10682,0.03927 -0.15923,0.06129 -0.16039,0.06739 -0.21911,-0.07236 -0.0654,-0.155633 0.19757,-0.267976 -0.4219,-0.18148 -0.57802,-0.553092 -0.054,-0.128635 0.0161,-0.232858 0.0702,-0.104222 0.26552,-0.186288 0.0826,-0.03469 0.11184,-0.04512 z" /><path
               id="path1779"
               style="font-style:normal;font-variant:normal;font-weight:normal;font-stretch:normal;font-size:3.52778px;font-family:'Comic Sans MS';-inkscape-font-specification:'Comic Sans MS, Normal';font-variant-ligatures:normal;font-variant-caps:normal;font-variant-numeric:normal;font-feature-settings:normal;text-align:start;writing-mode:lr-tb;text-anchor:start"
               d="m -152.93972,56.827831 q 0.13411,0.256437 0.0414,0.540119 -0.10288,0.316227 -0.45294,0.51291 -0.34018,0.189569 -0.69852,0.143704 -0.42162,-0.05165 -0.62119,-0.43325 -0.15965,-0.305282 0.0375,-0.608587 0.16045,-0.24331 0.48034,-0.404772 0.34126,-0.172638 0.67111,-0.125483 0.37388,0.05329 0.54231,0.375359 z m -1.41098,0.621276 q 0.11582,0.225181 0.39651,0.237789 0.22437,0.009 0.4457,-0.106738 0.22133,-0.11575 0.2819,-0.300997 0.0496,-0.154228 -0.0215,-0.290078 -0.083,-0.158747 -0.2589,-0.212558 -0.19607,-0.06269 -0.41834,0.04383 -0.6019,0.287563 -0.42541,0.62875 z" /><path
               id="path1781"
               style="font-style:normal;font-variant:normal;font-weight:normal;font-stretch:normal;font-size:3.52778px;font-family:'Comic Sans MS';-inkscape-font-specification:'Comic Sans MS, Normal';font-variant-ligatures:normal;font-variant-caps:normal;font-variant-numeric:normal;font-feature-settings:normal;text-align:start;writing-mode:lr-tb;text-anchor:start"
               d="m -156.70616,54.703296 q 0.0646,0.08937 -0.008,0.209699 -0.0611,0.10365 -0.0565,0.151284 0.006,0.04042 0.0895,0.156316 0.14626,0.202473 0.63478,0.225711 0.65818,0.03455 1.03101,-0.234754 0.18013,-0.130114 0.22628,-0.339816 0.0483,-0.215519 -0.0727,-0.383083 -0.10389,-0.143825 -0.2828,-0.235588 -0.10039,-0.05073 -0.34431,-0.129533 -0.11614,-0.03723 -0.14539,-0.07772 -0.0434,-0.06004 -0.0265,-0.133823 0.0154,-0.07277 0.0713,-0.113117 0.0628,-0.04539 0.14864,-0.02662 0.59303,0.132618 0.86536,0.509635 0.20879,0.289046 0.131,0.649099 -0.0758,0.348028 -0.36908,0.559842 -0.47337,0.341928 -1.25692,0.304437 -0.65377,-0.03137 -0.89685,-0.367895 -0.0494,-0.06842 -0.0818,-0.127923 -0.0337,-0.05849 -0.05,-0.110469 -0.10651,0.0026 -0.163,-0.07563 -0.0696,-0.09635 0.0393,-0.213269 0.097,-0.104041 0.26174,-0.223061 0.0572,-0.04135 0.12273,-0.0419 0.0817,-0.0016 0.13212,0.06818 z" /><path
               id="path1783"
               style="font-style:normal;font-variant:normal;font-weight:normal;font-stretch:normal;font-size:3.52778px;font-family:'Comic Sans MS';-inkscape-font-specification:'Comic Sans MS, Normal';font-variant-ligatures:normal;font-variant-caps:normal;font-variant-numeric:normal;font-feature-settings:normal;text-align:start;writing-mode:lr-tb;text-anchor:start"
               d="m -155.78534,52.657079 q 0.19063,0.217733 0.16722,0.515252 -0.0257,0.331548 -0.3197,0.605 -0.2861,0.264213 -0.64518,0.303854 -0.42194,0.0489 -0.70561,-0.275111 -0.22694,-0.259206 -0.10664,-0.600342 0.0988,-0.274206 0.37175,-0.50633 0.29112,-0.24801 0.62282,-0.279703 0.37593,-0.03608 0.61534,0.23738 z m -1.22543,0.935504 q 0.1655,0.19165 0.44129,0.137935 0.2202,-0.04398 0.40812,-0.208504 0.18793,-0.164528 0.20327,-0.358823 0.0119,-0.161561 -0.089,-0.276907 -0.11801,-0.134787 -0.30161,-0.145753 -0.20531,-0.01485 -0.39632,0.140929 -0.51745,0.420974 -0.26571,0.711123 z" /><path
               id="path1785"
               style="font-style:normal;font-variant:normal;font-weight:normal;font-stretch:normal;font-size:3.52778px;font-family:'Comic Sans MS';-inkscape-font-specification:'Comic Sans MS, Normal';font-variant-ligatures:normal;font-variant-caps:normal;font-variant-numeric:normal;font-feature-settings:normal;text-align:start;writing-mode:lr-tb;text-anchor:start"
               d="m -157.54166,50.825998 q 0.10687,0.102581 0.008,0.232519 l -0.22642,0.305559 q -0.12216,0.1621 -0.24383,0.288859 -0.0334,0.0348 -0.11704,0.114482 -0.0849,0.07849 -0.11829,0.11329 -0.25764,0.268432 -0.15822,0.363855 0.13918,0.133594 0.42458,0.08997 0.25866,-0.04063 0.54395,-0.208515 0.049,-0.04608 0.12808,-0.111054 0.0671,-0.05498 0.12316,-0.113389 0.0358,-0.03728 0.0999,-0.119003 0.0641,-0.08172 0.0999,-0.119004 0.0537,-0.05592 0.12187,-0.05732 0.067,-0.0026 0.12039,0.0487 0.0547,0.05248 0.0548,0.119486 1.5e-4,0.067 -0.0535,0.122925 -0.0358,0.03728 -0.0986,0.120197 -0.0641,0.08172 -0.0999,0.119003 -0.12286,0.128002 -0.35734,0.337482 -0.23693,0.20953 -0.35979,0.337532 -0.0382,0.03977 -0.10834,0.122832 -0.0714,0.08187 -0.10959,0.121638 -0.0513,0.05344 -0.11829,0.05359 -0.0694,2.06e-4 -0.12163,-0.04989 -0.11434,-0.109737 0.0295,-0.282029 l 0.13583,-0.148979 q -0.47596,0.07798 -0.69593,-0.133141 -0.19884,-0.190848 -0.10895,-0.44122 0.0587,-0.168108 0.27319,-0.401544 l 0.12047,-0.125517 0.11218,-0.114382 q 0.099,-0.103147 0.23035,-0.292238 0.12892,-0.18904 0.22673,-0.290945 0.0525,-0.05468 0.12073,-0.05364 0.0682,-0.0014 0.12163,0.04989 z" /><path
               id="path1787"
               style="font-style:normal;font-variant:normal;font-weight:normal;font-stretch:normal;font-size:3.52778px;font-family:'Comic Sans MS';-inkscape-font-specification:'Comic Sans MS, Normal';font-variant-ligatures:normal;font-variant-caps:normal;font-variant-numeric:normal;font-feature-settings:normal;text-align:start;writing-mode:lr-tb;text-anchor:start"
               d="m -158.55803,49.992195 q 0.27479,0.221777 0.32428,0.536205 0.0524,0.330043 -0.17804,0.615557 -0.21962,0.27211 -0.63426,0.415598 -0.4607,0.15943 -0.71271,-0.04396 -0.13136,-0.10602 -0.24379,-0.298584 -0.14126,-0.244607 -0.0493,-0.358545 0.0411,-0.05094 0.10707,-0.0641 0.0649,-0.01183 0.11448,0.0282 0.0389,0.03137 0.05,0.07796 0.009,0.04685 0.0171,0.09127 0.0282,0.12683 0.20786,0.271797 0.13672,0.110347 0.46766,-0.02543 0.30265,-0.125407 0.43464,-0.288941 0.1428,-0.176939 0.10438,-0.376178 -0.0358,-0.186046 -0.21273,-0.32885 -0.0804,-0.06491 -0.20619,-0.09558 l -0.22257,-0.04239 q -0.0575,-0.01101 -0.075,-0.02507 -0.0496,-0.04003 -0.0533,-0.109451 -0.005,-0.06808 0.0363,-0.11902 0.079,-0.09785 0.35897,-0.0224 0.24587,0.06562 0.36517,0.161906 z" /><path
               id="path1789"
               style="font-style:normal;font-variant:normal;font-weight:normal;font-stretch:normal;font-size:3.52778px;font-family:'Comic Sans MS';-inkscape-font-specification:'Comic Sans MS, Normal';font-variant-ligatures:normal;font-variant-caps:normal;font-variant-numeric:normal;font-feature-settings:normal;text-align:start;writing-mode:lr-tb;text-anchor:start"
               d="m -160.06621,48.927578 q 0.32329,0.216877 0.41511,0.51287 0.0989,0.325633 -0.117,0.647492 -0.24951,0.371925 -0.59864,0.502777 -0.38023,0.143183 -0.70781,-0.07657 -0.23746,-0.159299 -0.33392,-0.340167 -0.11832,-0.222495 0.0189,-0.427054 0.096,-0.143049 0.3363,-0.15191 0.10607,-0.0035 0.41074,0.04323 l 0.72014,0.107662 q -4.6e-4,-0.17247 -0.0789,-0.312199 -0.0798,-0.140689 -0.23864,-0.247208 -0.0987,-0.06621 -0.25669,-0.118268 -0.20046,-0.06603 -0.29996,-0.02284 -0.10045,0.04462 -0.15624,0.0072 -0.0501,-0.03359 -0.0628,-0.09812 -0.0151,-0.06406 0.0185,-0.114129 0.10652,-0.158783 0.43935,-0.101448 0.28412,0.04955 0.49154,0.188697 z m -0.8356,1.329079 q 0.17451,0.117075 0.38155,0.05891 0.20607,-0.05674 0.44562,-0.290142 l -0.57926,-0.08576 q -0.34337,-0.04781 -0.51589,-0.02872 0.0463,0.196967 0.26798,0.345709 z" /><path
               id="path1791"
               style="font-style:normal;font-variant:normal;font-weight:normal;font-stretch:normal;font-size:3.52778px;font-family:'Comic Sans MS';-inkscape-font-specification:'Comic Sans MS, Normal';font-variant-ligatures:normal;font-variant-caps:normal;font-variant-numeric:normal;font-feature-settings:normal;text-align:start;writing-mode:lr-tb;text-anchor:start"
               d="m -162.85328,48.849503 q 0.11476,-0.182584 0.25495,-0.10505 0.12963,0.0717 0.0471,0.220926 -0.0158,0.02864 -0.0538,0.108016 l -0.0655,0.129119 q 0.254,0.103083 0.45556,0.07677 0.18834,-0.02378 0.38649,-0.172056 l 0.45385,-0.827699 q 0.0842,-0.152244 0.23343,-0.06971 0.13265,0.07337 0.0485,0.225608 l -0.58525,1.058165 q -0.0275,0.04974 -0.0855,0.147561 -0.0596,0.09698 -0.0871,0.146728 -0.0842,0.152243 -0.21685,0.07888 -0.14772,-0.0817 -0.0108,-0.332757 -0.44364,0.118793 -0.79637,-0.07629 -0.12209,-0.06753 -0.13153,-0.192826 -0.009,-0.125296 0.0931,-0.310702 0.0434,-0.07838 0.0599,-0.104681 z" /><path
               id="path1793"
               style="font-style:normal;font-variant:normal;font-weight:normal;font-stretch:normal;font-size:3.52778px;font-family:'Comic Sans MS';-inkscape-font-specification:'Comic Sans MS, Normal';font-variant-ligatures:normal;font-variant-caps:normal;font-variant-numeric:normal;font-feature-settings:normal;text-align:start;writing-mode:lr-tb;text-anchor:start"
               d="m -164.21303,48.441623 q 0.0329,0.01494 0.077,0.03871 0.0425,0.02306 0.0754,0.038 0.0361,0.01636 0.22403,0.07322 l 0.39063,-0.940667 0.0297,-0.06974 0.0347,-0.08072 q 0.14952,-0.346409 0.32051,-0.268867 0.0628,0.02846 0.0913,0.09059 0.027,0.06142 -7.4e-4,0.122601 -0.027,0.05961 -0.0858,0.176707 -0.0588,0.117094 -0.0858,0.176707 l -0.38408,0.930397 q 0.11239,0.05664 0.33618,0.184601 0.13108,0.08214 0.0692,0.218624 -0.0313,0.06903 -0.0943,0.09531 -0.063,0.02629 -0.12888,-0.0036 l -0.31735,-0.176063 q -0.0363,0.08001 -0.0889,0.216911 -0.0549,0.137761 -0.0819,0.197375 -0.0299,0.06589 -0.0946,0.08761 -0.0654,0.0233 -0.1313,-0.0066 -0.1412,-0.06403 -0.0601,-0.305308 0.0216,-0.06018 0.0586,-0.141756 l 0.0444,-0.08957 0.0457,-0.09655 q -0.20591,-0.06311 -0.23415,-0.07592 -0.16315,-0.07399 -0.20624,-0.112439 -0.0815,-0.07477 -0.0288,-0.190861 0.0313,-0.06903 0.0959,-0.0946 0.0623,-0.02472 0.12973,0.0059 z" /><path
               id="path1795"
               style="font-style:normal;font-variant:normal;font-weight:normal;font-stretch:normal;font-size:3.52778px;font-family:'Comic Sans MS';-inkscape-font-specification:'Comic Sans MS, Normal';font-variant-ligatures:normal;font-variant-caps:normal;font-variant-numeric:normal;font-feature-settings:normal;text-align:start;writing-mode:lr-tb;text-anchor:start"
               d="m -165.30528,46.350264 q 0.0308,0.01102 0.0864,0.111386 0.0492,0.0926 0.0663,0.157263 0.18587,-0.02866 0.31935,-0.02849 0.13406,-0.0015 0.21354,0.02697 0.37954,0.135718 0.47653,0.411877 0.0919,0.259703 -0.0566,0.674927 -0.14035,0.392516 -0.50936,0.575216 -0.37063,0.18212 -0.7453,0.04814 -0.14111,-0.05046 -0.29018,-0.186087 -0.18811,-0.169709 -0.14229,-0.297844 0.0157,-0.04379 0.0603,-0.06625 0.0383,-0.05584 0.0985,-0.193466 0.0586,-0.138211 0.13907,-0.358219 0.0735,-0.200544 0.0861,-0.327765 0.009,-0.07717 -1e-4,-0.322006 -9.2e-4,-0.03326 -0.007,-0.0993 l 1.3e-4,-0.03105 q 0.0232,-0.06488 0.0837,-0.09081 0.0605,-0.02593 0.12051,-0.0045 z m -0.0657,1.247906 q -0.0249,0.06974 -0.062,0.147943 -0.0393,0.07924 -0.0902,0.165313 0.049,0.05228 0.0876,0.08254 0.0369,0.02968 0.0629,0.03896 0.25141,0.0899 0.50835,-0.05055 0.25474,-0.139409 0.35044,-0.407034 0.0951,-0.266003 0.0486,-0.432644 -0.0465,-0.166641 -0.23466,-0.23392 -0.15571,-0.05568 -0.28468,-0.03777 -0.0694,0.0099 -0.2079,0.06469 -0.1018,0.448382 -0.17835,0.662481 z" /><path
               id="path1797"
               style="font-style:normal;font-variant:normal;font-weight:normal;font-stretch:normal;font-size:3.52778px;font-family:'Comic Sans MS';-inkscape-font-specification:'Comic Sans MS, Normal';font-variant-ligatures:normal;font-variant-caps:normal;font-variant-numeric:normal;font-feature-settings:normal;text-align:start;writing-mode:lr-tb;text-anchor:start"
               d="m -167.69746,47.396185 q 0.083,-0.240132 0.14589,-0.485401 0.14256,-0.55561 0.16362,-0.852526 0.003,-0.02422 0.006,-0.03923 0.0171,-0.06674 0.075,-0.09813 0.0579,-0.03139 0.11958,-0.01555 0.10345,0.02654 0.1133,0.189124 0.14283,-0.05761 0.28453,-0.06926 0.14003,-0.01208 0.28019,0.02388 0.34538,0.08862 0.51321,0.377097 0.17323,0.295194 0.0786,0.663932 -0.1143,0.445489 -0.41849,0.653753 -0.30585,0.207836 -0.68293,0.111081 -0.19355,-0.04966 -0.28325,-0.136699 l -0.1273,-0.155369 q -0.2036,0.696444 -0.2978,0.931911 -0.0598,0.142931 -0.18994,0.109537 -0.15183,-0.03896 -0.11031,-0.200802 0.0595,-0.231922 0.32961,-1.007334 z m 0.75194,0.146703 q 0.28031,0.07192 0.46328,-0.05896 0.18253,-0.12922 0.26816,-0.462919 0.0552,-0.215237 -0.0568,-0.409366 -0.11368,-0.194557 -0.31891,-0.247215 -0.14015,-0.03596 -0.2502,-0.0091 -0.0644,0.01548 -0.22073,0.09096 -0.0306,0.01527 -0.0617,0.03931 l -0.0691,0.289935 -0.0513,0.193117 -0.0538,0.196027 q 0.0287,0.151417 0.11671,0.245128 0.0876,0.09538 0.23439,0.133054 z" /><path
               id="path1799"
               style="font-style:normal;font-variant:normal;font-weight:normal;font-stretch:normal;font-size:3.52778px;font-family:'Comic Sans MS';-inkscape-font-specification:'Comic Sans MS, Normal';font-variant-ligatures:normal;font-variant-caps:normal;font-variant-numeric:normal;font-feature-settings:normal;text-align:start;writing-mode:lr-tb;text-anchor:start"
               d="m -168.42039,45.626437 q 0.28578,0.04554 0.458,0.289272 0.19224,0.271343 0.14099,0.669594 -0.051,0.386072 -0.30181,0.646131 -0.29317,0.307372 -0.71845,0.239607 -0.34021,-0.05421 -0.46582,-0.393431 -0.0994,-0.273987 -0.0379,-0.627 0.0653,-0.376828 0.30006,-0.613269 0.26599,-0.268098 0.62492,-0.210904 z m -0.34413,1.502807 q 0.24979,0.04155 0.4275,-0.176079 0.1412,-0.174604 0.18051,-0.421261 0.0393,-0.246658 -0.0731,-0.40586 -0.0941,-0.131863 -0.24551,-0.155987 -0.17691,-0.02819 -0.32509,0.08076 -0.16736,0.119852 -0.21463,0.361752 -0.12872,0.654525 0.25035,0.716673 z" /></g><path
             d="m -110.36137,92.000015 c -3.15729,1.526994 -6.64697,2.162967 -10.09875,2.476823 -5.70789,0.518995 -11.43532,-1.186618 -17.16424,-1.016619 -1.83792,0.05454 -5.47752,0.652087 -5.47752,0.652087 m 16.37136,-15.44613 c -0.26404,2.948406 -0.72783,5.885711 -0.79211,8.845218 -0.15691,7.224288 0.87749,14.430116 0.99428,21.655166 0.0804,4.9711 0.52531,9.67855 -0.20217,14.91388"
             style="fill:#800080;stroke:#090abd;stroke-width:2.665;stroke-linecap:butt;stroke-linejoin:miter;stroke-miterlimit:4;stroke-dasharray:none;stroke-opacity:1"
             id="path1150" /></g></g><g
         id="g34928"
         transform="matrix(1.9787493,0,0,1.9787493,-34.343174,-148.5636)"><path
           id="path34896"
           style="fill-rule:evenodd;stroke-width:0.331999;stop-color:#000000"
           d="m 155.57087,163.96712 1.52683,-0.20128 h 0.77276 l -0.0224,0.58081 h -2.27723 c -0.11684,-0.12651 -0.0912,-0.25302 4e-5,-0.37953 z"
           sodipodi:nodetypes="cccccc" /><rect
           style="fill:#fab592;fill-opacity:1;fill-rule:evenodd;stroke:none;stroke-width:0.331999;stroke-dasharray:none;stroke-opacity:1;stop-color:#000000"
           id="rect34900"
           width="0.73802716"
           height="0.25719127"
           x="157.18715"
           y="163.45956" /></g><g
         id="g34932"
         transform="matrix(-1.9787493,0,0,1.9787493,600.41585,-147.94405)"><path
           id="path34898"
           style="fill-rule:evenodd;stroke-width:0.331999;stop-color:#000000"
           d="m 157.40476,163.96712 1.52683,-0.20128 h 0.77276 l -0.0224,0.58081 h -2.27723 c -0.11684,-0.12651 -0.0912,-0.25302 4e-5,-0.37953 z"
           sodipodi:nodetypes="cccccc" /><rect
           style="fill:#fab592;fill-opacity:1;fill-rule:evenodd;stroke:none;stroke-width:0.331999;stroke-dasharray:none;stroke-opacity:1;stop-color:#000000"
           id="rect34902"
           width="0.73802716"
           height="0.25719127"
           x="158.94276"
           y="163.45956" /></g><path
         style="fill:#3f4a4b;fill-opacity:1;fill-rule:evenodd;stroke:none;stroke-width:0.656943;stroke-dasharray:none;stroke-opacity:1;stop-color:#000000"
         d="m 281.35957,139.76661 c 0,0 -0.052,-0.57401 -0.26551,-0.70805 -0.27596,-0.17334 -0.66152,0.18224 -0.97359,0.0884 -0.18085,-0.0544 -0.45416,-0.16543 -0.44254,-0.35404 0.0277,-0.44949 0.77539,-0.45903 1.1506,-0.70806 0.10567,-0.0702 0.20365,-0.15177 0.30977,-0.22126 0.14386,-0.0944 0.29009,-0.1858 0.44255,-0.26553 0.2867,-0.14979 0.56755,-0.33627 0.88506,-0.39828 0.39116,-0.0764 0.85974,-0.17156 1.19484,0.0443 0.0833,0.0536 0.079,0.18244 0.13278,0.26553 0.11397,0.17591 0.30419,0.29943 0.39828,0.48679 0.0819,0.16305 0.0449,0.37106 0.13277,0.53104 0.18561,0.33851 0.68143,0.47231 0.79657,0.84081 0.11576,0.3704 -0.13673,0.76465 -0.1771,1.1506 -0.0277,0.2645 0.0851,0.5642 -0.0443,0.79657 -0.0877,0.15731 -0.27216,0.25156 -0.44255,0.30977 -0.29347,0.10032 -0.62928,-0.034 -0.92932,0.0443 -0.19154,0.0501 -0.33431,0.2439 -0.53104,0.2655 -0.1209,0.0139 -0.2357,-0.0601 -0.35403,-0.0884 -0.32373,-0.0772 -0.69235,-0.0433 -0.97359,-0.22128 -0.22193,-0.14049 -0.55003,-0.36464 -0.48679,-0.61955 0.035,-0.14108 0.26141,-0.12842 0.39828,-0.17709 0.1585,-0.0564 0.38471,8.9e-4 0.48679,-0.13278 0.11636,-0.15236 0,-0.38354 0,-0.5753 0,-0.0738 0,-0.22126 0,-0.22126"
         id="path34904"
         sodipodi:nodetypes="caaaaaaaaaaaaaaaaaaaaaaac" /></g></g></svg>
